<?xml version="1.0" encoding="UTF-8" standalone="no"?>
<!-- Created with Inkscape (http://www.inkscape.org/) -->

<svg
   xmlns:dc="http://purl.org/dc/elements/1.1/"
   xmlns:cc="http://creativecommons.org/ns#"
   xmlns:rdf="http://www.w3.org/1999/02/22-rdf-syntax-ns#"
   xmlns:svg="http://www.w3.org/2000/svg"
   xmlns="http://www.w3.org/2000/svg"
   xmlns:sodipodi="http://sodipodi.sourceforge.net/DTD/sodipodi-0.dtd"
   xmlns:inkscape="http://www.inkscape.org/namespaces/inkscape"
   id="svg2"
   version="1.1"
   inkscape:version="0.48.3.1 r9886"
   width="787.35919"
   height="615.35669"
   xml:space="preserve"
   sodipodi:docname="NOx_emissions_for_Maximal-O3.pdf"><metadata
     id="metadata8"><rdf:RDF><cc:Work
         rdf:about=""><dc:format>image/svg+xml</dc:format><dc:type
           rdf:resource="http://purl.org/dc/dcmitype/StillImage" /><dc:title></dc:title></cc:Work></rdf:RDF></metadata><defs
     id="defs6"><clipPath
       clipPathUnits="userSpaceOnUse"
       id="clipPath20"><path
         d="m 59.234,276 275.32,0 0,-219 -275.32,0 0,219 z"
         id="path22"
         inkscape:connector-curvature="0" /></clipPath><clipPath
       clipPathUnits="userSpaceOnUse"
       id="clipPath30"><path
         d="m 59.234,252 275.32,0 0,-197 -275.32,0 0,197 z"
         id="path32"
         inkscape:connector-curvature="0" /></clipPath><clipPath
       clipPathUnits="userSpaceOnUse"
       id="clipPath40"><path
         d="m 59.234,283 275.32,0 0,-211 -275.32,0 0,211 z"
         id="path42"
         inkscape:connector-curvature="0" /></clipPath><clipPath
       clipPathUnits="userSpaceOnUse"
       id="clipPath50"><path
         d="m 59.234,365 275.32,0 0,-253 -275.32,0 0,253 z"
         id="path52"
         inkscape:connector-curvature="0" /></clipPath><clipPath
       clipPathUnits="userSpaceOnUse"
       id="clipPath60"><path
         d="m 59.234,341 275.32,0 0,-240 -275.32,0 0,240 z"
         id="path62"
         inkscape:connector-curvature="0" /></clipPath><clipPath
       clipPathUnits="userSpaceOnUse"
       id="clipPath70"><path
         d="m 59.234,276 275.32,0 0,-219 -275.32,0 0,219 z"
         id="path72"
         inkscape:connector-curvature="0" /></clipPath><clipPath
       clipPathUnits="userSpaceOnUse"
       id="clipPath80"><path
         d="m 59.234,252 275.32,0 0,-197 -275.32,0 0,197 z"
         id="path82"
         inkscape:connector-curvature="0" /></clipPath><clipPath
       clipPathUnits="userSpaceOnUse"
       id="clipPath90"><path
         d="m 59.234,283 275.32,0 0,-211 -275.32,0 0,211 z"
         id="path92"
         inkscape:connector-curvature="0" /></clipPath><clipPath
       clipPathUnits="userSpaceOnUse"
       id="clipPath100"><path
         d="m 59.234,365 275.32,0 0,-253 -275.32,0 0,253 z"
         id="path102"
         inkscape:connector-curvature="0" /></clipPath><clipPath
       clipPathUnits="userSpaceOnUse"
       id="clipPath110"><path
         d="m 59.234,341 275.32,0 0,-240 -275.32,0 0,240 z"
         id="path112"
         inkscape:connector-curvature="0" /></clipPath><clipPath
       clipPathUnits="userSpaceOnUse"
       id="clipPath120"><path
         d="m 347.73,379 275.32,0 0,-323 -275.32,0 0,323 z"
         id="path122"
         inkscape:connector-curvature="0" /></clipPath><clipPath
       clipPathUnits="userSpaceOnUse"
       id="clipPath130"><path
         d="m 347.73,340 275.32,0 0,-287 -275.32,0 0,287 z"
         id="path132"
         inkscape:connector-curvature="0" /></clipPath><clipPath
       clipPathUnits="userSpaceOnUse"
       id="clipPath140"><path
         d="m 347.73,367 275.32,0 0,-298 -275.32,0 0,298 z"
         id="path142"
         inkscape:connector-curvature="0" /></clipPath><clipPath
       clipPathUnits="userSpaceOnUse"
       id="clipPath150"><path
         d="m 347.73,453 275.32,0 0,-343 -275.32,0 0,343 z"
         id="path152"
         inkscape:connector-curvature="0" /></clipPath><clipPath
       clipPathUnits="userSpaceOnUse"
       id="clipPath160"><path
         d="m 347.73,403 275.32,0 0,-303 -275.32,0 0,303 z"
         id="path162"
         inkscape:connector-curvature="0" /></clipPath><clipPath
       clipPathUnits="userSpaceOnUse"
       id="clipPath170"><path
         d="m 347.73,379 275.32,0 0,-323 -275.32,0 0,323 z"
         id="path172"
         inkscape:connector-curvature="0" /></clipPath><clipPath
       clipPathUnits="userSpaceOnUse"
       id="clipPath180"><path
         d="m 347.73,340 275.32,0 0,-287 -275.32,0 0,287 z"
         id="path182"
         inkscape:connector-curvature="0" /></clipPath><clipPath
       clipPathUnits="userSpaceOnUse"
       id="clipPath190"><path
         d="m 347.73,367 275.32,0 0,-298 -275.32,0 0,298 z"
         id="path192"
         inkscape:connector-curvature="0" /></clipPath><clipPath
       clipPathUnits="userSpaceOnUse"
       id="clipPath200"><path
         d="m 347.73,453 275.32,0 0,-343 -275.32,0 0,343 z"
         id="path202"
         inkscape:connector-curvature="0" /></clipPath><clipPath
       clipPathUnits="userSpaceOnUse"
       id="clipPath210"><path
         d="m 347.73,403 275.32,0 0,-303 -275.32,0 0,303 z"
         id="path212"
         inkscape:connector-curvature="0" /></clipPath></defs><sodipodi:namedview
     pagecolor="#ffffff"
     bordercolor="#666666"
     borderopacity="1"
     objecttolerance="10"
     gridtolerance="10"
     guidetolerance="10"
     inkscape:pageopacity="0"
     inkscape:pageshadow="2"
     inkscape:window-width="1920"
     inkscape:window-height="1023"
     id="namedview4"
     showgrid="false"
     fit-margin-top="0"
     fit-margin-left="0"
     fit-margin-right="0"
     fit-margin-bottom="0"
     inkscape:zoom="0.88777778"
     inkscape:cx="626.28536"
     inkscape:cy="334.19112"
     inkscape:window-x="0"
     inkscape:window-y="27"
     inkscape:window-maximized="1"
     inkscape:current-layer="g10" /><g
     id="g10"
     inkscape:groupmode="layer"
     inkscape:label="NOx_emissions_for_Maximal-O3"
     transform="matrix(1.25,0,0,-1.25,0,622.11514)"><g
       id="g12"
       transform="matrix(0.87484355,0,0,0.97675666,0,5.4067584)"><path
         d="M 0,0 720,0 720,504 0,504 0,0 z"
         style="fill:#ffffff;fill-opacity:1;fill-rule:nonzero;stroke:none"
         id="path14"
         inkscape:connector-curvature="0" /></g><g
       id="g16"><g
         id="g18"
         clip-path="url(#clipPath20)"><path
           d="m 59.234,58.742 3.473,1.668 3.473,1.692 3.472,1.718 3.473,1.746 3.473,1.774 3.472,1.805 3.473,1.828 3.473,1.855 3.472,1.883 3.473,1.91 3.473,1.941 3.472,1.965 3.473,1.993 3.473,2.019 3.472,2.051 3.473,2.074 3.469,2.106 3.472,2.128 3.473,2.161 3.473,2.183 3.472,2.211 3.473,2.235 3.473,2.261 3.472,2.289 3.473,2.317 3.473,2.34 3.472,2.371 3.473,2.398 3.473,2.43 3.472,2.461 3.473,2.488 3.472,2.519 3.469,2.551 3.473,2.582 3.473,2.61 3.472,2.636 3.473,2.664 3.473,2.696 3.472,2.719 3.473,2.746 3.472,2.769 3.473,2.801 3.473,2.824 3.472,2.852 3.473,2.883 3.473,2.91 3.472,2.937 3.473,2.969 3.473,2.996 3.468,3.027 3.473,3.059 3.473,3.094 3.472,3.125 3.473,3.16 3.473,3.183 3.472,3.215 3.473,3.239 3.473,3.261 3.472,3.278 3.473,3.3 3.473,3.321 3.472,3.343 3.473,3.376 3.473,3.394 3.472,3.426 3.473,3.449 3.469,3.473 3.472,3.5 3.473,3.519 3.473,3.547 3.472,3.57 3.473,3.598 3.473,3.617 3.472,3.645 3.473,3.672 3.473,3.691 3.472,3.723 3.473,3.742 3.473,3.769"
           style="fill:none;stroke:#6c254f;stroke-width:2.84527612;stroke-linecap:butt;stroke-linejoin:round;stroke-miterlimit:10;stroke-opacity:1;stroke-dasharray:none"
           id="path24"
           inkscape:connector-curvature="0" /></g></g><g
       id="g26"><g
         id="g28"
         clip-path="url(#clipPath30)"><path
           d="m 59.234,56.445 3.473,1.778 3.473,1.793 3.472,1.808 3.473,1.821 3.473,1.839 3.472,1.856 3.473,1.867 3.473,1.883 3.472,1.898 3.473,1.914 3.473,1.926 3.472,1.942 3.473,1.953 3.473,1.968 3.472,1.989 3.473,2 3.469,2.015 3.472,2.035 3.473,2.047 3.473,2.067 3.472,2.074 3.473,2.086 3.473,2.098 3.472,2.117 3.473,2.129 3.473,2.144 3.472,2.168 3.473,2.184 3.473,2.203 3.472,2.223 3.473,2.242 3.472,2.25 3.469,2.265 3.473,2.278 3.473,2.3 3.472,2.317 3.473,2.336 3.473,2.363 3.472,2.391 3.473,2.418 3.472,2.441 3.473,2.461 3.473,2.484 3.472,2.508 3.473,2.528 3.473,2.55 3.472,2.571 3.473,2.593 3.473,2.614 3.468,2.632 3.473,2.653 3.473,2.676 3.472,2.691 3.473,2.715 3.473,2.738 3.472,2.754 3.473,2.773 3.473,2.797 3.472,2.817 3.473,2.836 3.473,2.855 3.472,2.879 3.473,2.895 3.473,2.918 3.472,2.937 3.473,2.957 3.469,2.981 3.472,3 3.473,3.023 3.473,3.043 3.472,3.062 3.473,3.086 3.473,3.106 3.472,3.129 3.473,3.144 3.473,3.172 3.472,3.188 3.473,3.211 3.473,3.23"
           style="fill:none;stroke:#ef6638;stroke-width:2.84527612;stroke-linecap:butt;stroke-linejoin:round;stroke-miterlimit:10;stroke-opacity:1;stroke-dasharray:none"
           id="path34"
           inkscape:connector-curvature="0" /></g></g><g
       id="g36"><g
         id="g38"
         clip-path="url(#clipPath40)"><path
           d="m 59.234,73.727 3.473,1.898 3.473,1.922 3.472,1.945 3.473,1.965 3.473,1.984 3.472,2.008 3.473,2.031 3.473,2.051 3.472,2.074 3.473,2.094 3.473,2.121 3.472,2.141 3.473,2.16 3.473,2.184 3.472,2.207 3.473,2.226 3.469,2.246 3.472,2.266 3.473,2.285 3.473,2.313 3.472,2.34 3.473,2.367 3.473,2.386 3.472,2.414 3.473,2.434 3.473,2.453 3.472,2.465 3.473,2.484 3.473,2.497 3.472,2.507 3.473,2.524 3.472,2.547 3.469,2.57 3.473,2.586 3.473,2.605 3.472,2.621 3.473,2.633 3.473,2.645 3.472,2.648 3.473,2.66 3.472,2.676 3.473,2.695 3.473,2.707 3.472,2.723 3.473,2.738 3.473,2.754 3.472,2.766 3.473,2.773 3.473,2.789 3.468,2.797 3.473,2.805 6.945,5.625 3.473,2.824 3.473,2.836 3.472,2.852 3.473,2.871 3.473,2.89 3.472,2.918 3.473,2.946 3.473,2.965 3.472,2.984 3.473,3 3.473,3.016 3.472,3.035 3.473,3.051 3.469,3.07 3.472,3.086 3.473,3.109 3.473,3.129 3.472,3.148 3.473,3.168 3.473,3.184 3.472,3.207 3.473,3.223 3.473,3.242 3.472,3.262 3.473,3.277 3.473,3.293"
           style="fill:none;stroke:#2b9eb3;stroke-width:2.84527612;stroke-linecap:butt;stroke-linejoin:round;stroke-miterlimit:10;stroke-opacity:1;stroke-dasharray:none"
           id="path44"
           inkscape:connector-curvature="0" /></g></g><g
       id="g46"><g
         id="g48"
         clip-path="url(#clipPath50)"><path
           d="m 59.234,113.527 3.473,2.266 3.473,2.289 3.472,2.316 3.473,2.34 3.473,2.364 3.472,2.386 3.473,2.414 3.473,2.438 3.472,2.457 3.473,2.488 3.473,2.508 3.472,2.531 3.473,2.559 3.473,2.578 3.472,2.609 3.473,2.629 3.469,2.656 3.472,2.68 3.473,2.707 3.473,2.731 3.472,2.75 3.473,2.773 3.473,2.793 3.472,2.82 3.473,2.844 3.473,2.871 3.472,2.895 3.473,2.926 3.473,2.949 3.472,2.98 3.473,3.012 3.472,3.043 3.469,3.078 3.473,3.102 3.473,3.132 3.472,3.153 3.473,3.179 3.473,3.196 3.472,3.219 3.473,3.234 3.472,3.277 3.473,3.317 3.473,3.347 3.472,3.379 3.473,3.403 3.473,3.421 3.472,3.434 3.473,3.445 3.473,3.453 3.468,3.45 3.473,3.445 3.473,3.449 3.472,3.465 3.473,3.473 3.473,3.484 3.472,3.5 3.473,3.52 3.473,3.539 3.472,3.558 3.473,3.582 3.473,3.602 3.472,3.617 3.473,3.633 3.473,3.652 3.472,3.668 3.473,3.684 3.469,3.699 3.472,3.719 3.473,3.734 3.473,3.75 3.472,3.77 3.473,3.785 3.473,3.801 3.472,3.82 3.473,3.836 3.473,3.851 3.472,3.871 3.473,3.887 3.473,3.903"
           style="fill:none;stroke:#0e5c28;stroke-width:2.84527612;stroke-linecap:butt;stroke-linejoin:round;stroke-miterlimit:10;stroke-opacity:1;stroke-dasharray:none"
           id="path54"
           inkscape:connector-curvature="0" /></g></g><g
       id="g56"><g
         id="g58"
         clip-path="url(#clipPath60)"><path
           d="m 59.234,102.535 3.473,2.137 3.473,2.16 3.472,2.18 3.473,2.203 3.473,2.226 3.472,2.247 3.473,2.269 3.473,2.289 3.472,2.316 3.473,2.333 3.473,2.359 3.472,2.379 3.473,2.402 3.473,2.426 3.472,2.445 3.473,2.465 3.469,2.488 3.472,2.508 3.473,2.531 3.473,2.551 3.472,2.574 3.473,2.594 3.473,2.621 3.472,2.641 3.473,2.66 3.473,2.684 3.472,2.703 3.473,2.722 3.473,2.743 3.472,2.757 3.473,2.774 3.472,2.785 3.469,2.793 3.473,2.812 3.473,2.833 3.472,2.855 3.473,2.883 3.473,2.914 3.472,2.949 3.473,2.988 3.472,3.012 3.473,3.035 3.473,3.063 3.472,3.086 3.473,3.113 3.473,3.137 3.472,3.16 3.473,3.191 3.473,3.215 3.468,3.242 3.473,3.27 3.473,3.301 3.472,3.332 3.473,3.359 3.473,3.383 3.472,3.41 3.473,3.426 3.473,3.449 3.472,3.465 3.473,3.48 3.473,3.5 3.472,3.52 3.473,3.547 3.473,3.566 3.472,3.594 3.473,3.609 3.469,3.637 3.472,3.652 3.473,3.676 3.473,3.691 3.472,3.715 3.473,3.735 3.473,3.754 3.472,3.773 3.473,3.797 3.473,3.816 3.472,3.84 3.473,3.86 3.473,3.882"
           style="fill:none;stroke:#f9c500;stroke-width:2.84527612;stroke-linecap:butt;stroke-linejoin:round;stroke-miterlimit:10;stroke-opacity:1;stroke-dasharray:none"
           id="path64"
           inkscape:connector-curvature="0" /></g></g><g
       id="g66"><g
         id="g68"
         clip-path="url(#clipPath70)"><path
           d="m 59.234,58.742 3.473,1.668 3.473,1.692 3.472,1.718 3.473,1.746 3.473,1.774 3.472,1.805 3.473,1.828 3.473,1.855 3.472,1.883 3.473,1.91 3.473,1.941 3.472,1.965 3.473,1.993 3.473,2.019 3.472,2.051 3.473,2.074 3.469,2.106 3.472,2.128 3.473,2.161 3.473,2.183 3.472,2.211 3.473,2.235 3.473,2.261 3.472,2.289 3.473,2.317 3.473,2.34 3.472,2.371 3.473,2.398 3.473,2.43 3.472,2.461 3.473,2.488 3.472,2.519 3.469,2.551 3.473,2.582 3.473,2.61 3.472,2.636 3.473,2.664 3.473,2.696 3.472,2.719 3.473,2.746 3.472,2.769 3.473,2.801 3.473,2.824 3.472,2.852 3.473,2.883 3.473,2.91 3.472,2.937 3.473,2.969 3.473,2.996 3.468,3.027 3.473,3.059 3.473,3.094 3.472,3.125 3.473,3.16 3.473,3.183 3.472,3.215 3.473,3.239 3.473,3.261 3.472,3.278 3.473,3.3 3.473,3.321 3.472,3.343 3.473,3.376 3.473,3.394 3.472,3.426 3.473,3.449 3.469,3.473 3.472,3.5 3.473,3.519 3.473,3.547 3.472,3.57 3.473,3.598 3.473,3.617 3.472,3.645 3.473,3.672 3.473,3.691 3.472,3.723 3.473,3.742 3.473,3.769"
           style="fill:none;stroke:#6c254f;stroke-width:2.84527612;stroke-linecap:butt;stroke-linejoin:round;stroke-miterlimit:10;stroke-opacity:1;stroke-dasharray:none"
           id="path74"
           inkscape:connector-curvature="0" /></g></g><g
       id="g76"><g
         id="g78"
         clip-path="url(#clipPath80)"><path
           d="m 59.234,56.445 3.473,1.778 3.473,1.793 3.472,1.808 3.473,1.821 3.473,1.839 3.472,1.856 3.473,1.867 3.473,1.883 3.472,1.898 3.473,1.914 3.473,1.926 3.472,1.942 3.473,1.953 3.473,1.968 3.472,1.989 3.473,2 3.469,2.015 3.472,2.035 3.473,2.047 3.473,2.067 3.472,2.074 3.473,2.086 3.473,2.098 3.472,2.117 3.473,2.129 3.473,2.144 3.472,2.168 3.473,2.184 3.473,2.203 3.472,2.223 3.473,2.242 3.472,2.25 3.469,2.265 3.473,2.278 3.473,2.3 3.472,2.317 3.473,2.336 3.473,2.363 3.472,2.391 3.473,2.418 3.472,2.441 3.473,2.461 3.473,2.484 3.472,2.508 3.473,2.528 3.473,2.55 3.472,2.571 3.473,2.593 3.473,2.614 3.468,2.632 3.473,2.653 3.473,2.676 3.472,2.691 3.473,2.715 3.473,2.738 3.472,2.754 3.473,2.773 3.473,2.797 3.472,2.817 3.473,2.836 3.473,2.855 3.472,2.879 3.473,2.895 3.473,2.918 3.472,2.937 3.473,2.957 3.469,2.981 3.472,3 3.473,3.023 3.473,3.043 3.472,3.062 3.473,3.086 3.473,3.106 3.472,3.129 3.473,3.144 3.473,3.172 3.472,3.188 3.473,3.211 3.473,3.23"
           style="fill:none;stroke:#ef6638;stroke-width:2.84527612;stroke-linecap:butt;stroke-linejoin:round;stroke-miterlimit:10;stroke-opacity:1;stroke-dasharray:none"
           id="path84"
           inkscape:connector-curvature="0" /></g></g><g
       id="g86"><g
         id="g88"
         clip-path="url(#clipPath90)"><path
           d="m 59.234,73.727 3.473,1.898 3.473,1.922 3.472,1.945 3.473,1.965 3.473,1.984 3.472,2.008 3.473,2.031 3.473,2.051 3.472,2.074 3.473,2.094 3.473,2.121 3.472,2.141 3.473,2.16 3.473,2.184 3.472,2.207 3.473,2.226 3.469,2.246 3.472,2.266 3.473,2.285 3.473,2.313 3.472,2.34 3.473,2.367 3.473,2.386 3.472,2.414 3.473,2.434 3.473,2.453 3.472,2.465 3.473,2.484 3.473,2.497 3.472,2.507 3.473,2.524 3.472,2.547 3.469,2.57 3.473,2.586 3.473,2.605 3.472,2.621 3.473,2.633 3.473,2.645 3.472,2.648 3.473,2.66 3.472,2.676 3.473,2.695 3.473,2.707 3.472,2.723 3.473,2.738 3.473,2.754 3.472,2.766 3.473,2.773 3.473,2.789 3.468,2.797 3.473,2.805 6.945,5.625 3.473,2.824 3.473,2.836 3.472,2.852 3.473,2.871 3.473,2.89 3.472,2.918 3.473,2.946 3.473,2.965 3.472,2.984 3.473,3 3.473,3.016 3.472,3.035 3.473,3.051 3.469,3.07 3.472,3.086 3.473,3.109 3.473,3.129 3.472,3.148 3.473,3.168 3.473,3.184 3.472,3.207 3.473,3.223 3.473,3.242 3.472,3.262 3.473,3.277 3.473,3.293"
           style="fill:none;stroke:#2b9eb3;stroke-width:2.84527612;stroke-linecap:butt;stroke-linejoin:round;stroke-miterlimit:10;stroke-opacity:1;stroke-dasharray:none"
           id="path94"
           inkscape:connector-curvature="0" /></g></g><g
       id="g96"><g
         id="g98"
         clip-path="url(#clipPath100)"><path
           d="m 59.234,113.527 3.473,2.266 3.473,2.289 3.472,2.316 3.473,2.34 3.473,2.364 3.472,2.386 3.473,2.414 3.473,2.438 3.472,2.457 3.473,2.488 3.473,2.508 3.472,2.531 3.473,2.559 3.473,2.578 3.472,2.609 3.473,2.629 3.469,2.656 3.472,2.68 3.473,2.707 3.473,2.731 3.472,2.75 3.473,2.773 3.473,2.793 3.472,2.82 3.473,2.844 3.473,2.871 3.472,2.895 3.473,2.926 3.473,2.949 3.472,2.98 3.473,3.012 3.472,3.043 3.469,3.078 3.473,3.102 3.473,3.132 3.472,3.153 3.473,3.179 3.473,3.196 3.472,3.219 3.473,3.234 3.472,3.277 3.473,3.317 3.473,3.347 3.472,3.379 3.473,3.403 3.473,3.421 3.472,3.434 3.473,3.445 3.473,3.453 3.468,3.45 3.473,3.445 3.473,3.449 3.472,3.465 3.473,3.473 3.473,3.484 3.472,3.5 3.473,3.52 3.473,3.539 3.472,3.558 3.473,3.582 3.473,3.602 3.472,3.617 3.473,3.633 3.473,3.652 3.472,3.668 3.473,3.684 3.469,3.699 3.472,3.719 3.473,3.734 3.473,3.75 3.472,3.77 3.473,3.785 3.473,3.801 3.472,3.82 3.473,3.836 3.473,3.851 3.472,3.871 3.473,3.887 3.473,3.903"
           style="fill:none;stroke:#0e5c28;stroke-width:2.84527612;stroke-linecap:butt;stroke-linejoin:round;stroke-miterlimit:10;stroke-opacity:1;stroke-dasharray:none"
           id="path104"
           inkscape:connector-curvature="0" /></g></g><g
       id="g106"><g
         id="g108"
         clip-path="url(#clipPath110)"><path
           d="m 59.234,102.535 3.473,2.137 3.473,2.16 3.472,2.18 3.473,2.203 3.473,2.226 3.472,2.247 3.473,2.269 3.473,2.289 3.472,2.316 3.473,2.333 3.473,2.359 3.472,2.379 3.473,2.402 3.473,2.426 3.472,2.445 3.473,2.465 3.469,2.488 3.472,2.508 3.473,2.531 3.473,2.551 3.472,2.574 3.473,2.594 3.473,2.621 3.472,2.641 3.473,2.66 3.473,2.684 3.472,2.703 3.473,2.722 3.473,2.743 3.472,2.757 3.473,2.774 3.472,2.785 3.469,2.793 3.473,2.812 3.473,2.833 3.472,2.855 3.473,2.883 3.473,2.914 3.472,2.949 3.473,2.988 3.472,3.012 3.473,3.035 3.473,3.063 3.472,3.086 3.473,3.113 3.473,3.137 3.472,3.16 3.473,3.191 3.473,3.215 3.468,3.242 3.473,3.27 3.473,3.301 3.472,3.332 3.473,3.359 3.473,3.383 3.472,3.41 3.473,3.426 3.473,3.449 3.472,3.465 3.473,3.48 3.473,3.5 3.472,3.52 3.473,3.547 3.473,3.566 3.472,3.594 3.473,3.609 3.469,3.637 3.472,3.652 3.473,3.676 3.473,3.691 3.472,3.715 3.473,3.735 3.473,3.754 3.472,3.773 3.473,3.797 3.473,3.816 3.472,3.84 3.473,3.86 3.473,3.882"
           style="fill:none;stroke:#f9c500;stroke-width:2.84527612;stroke-linecap:butt;stroke-linejoin:round;stroke-miterlimit:10;stroke-opacity:1;stroke-dasharray:none"
           id="path114"
           inkscape:connector-curvature="0" /></g></g><g
       id="g116"><g
         id="g118"
         clip-path="url(#clipPath120)"><path
           d="m 347.73,57.391 3.473,1.586 3.473,1.636 3.472,1.688 3.473,1.73 3.473,1.781 3.472,1.833 3.473,1.878 3.473,1.926 3.472,1.973 3.473,2.023 3.469,2.067 3.472,2.117 3.473,2.164 3.473,2.211 3.472,2.262 3.473,2.308 3.473,2.36 3.472,2.41 3.473,2.461 3.473,2.504 3.472,2.55 3.473,2.594 3.473,2.641 3.472,2.687 3.473,2.739 3.473,2.789 3.468,2.839 3.473,2.899 3.473,2.949 3.472,3.012 3.473,3.047 3.473,3.066 3.472,3.098 3.473,3.136 3.473,3.192 3.472,3.25 3.473,3.32 3.473,3.403 3.472,3.492 3.473,3.582 3.473,3.594 3.472,3.605 3.473,3.637 3.469,3.683 3.472,3.754 3.473,3.832 3.473,3.934 3.472,4.051 3.473,4.183 3.473,4.34 3.472,4.492 3.473,4.563 3.473,4.625 3.472,4.707 3.473,4.804 3.473,4.926 3.472,5.059 3.473,5.211 3.472,5.383 3.473,5.566 3.469,5.73 3.473,5.848 3.472,5.965 3.473,6.09 3.473,6.215 3.472,6.343 3.473,6.481 3.472,6.617 3.473,6.758 3.473,6.898 3.472,7.043 3.473,7.18 3.473,7.316 3.472,7.45 3.473,7.585 3.473,7.723 3.472,7.852 3.469,7.98 3.473,8.113"
           style="fill:none;stroke:#6c254f;stroke-width:2.84527612;stroke-linecap:butt;stroke-linejoin:round;stroke-miterlimit:10;stroke-opacity:1;stroke-dasharray:none"
           id="path124"
           inkscape:connector-curvature="0" /></g></g><g
       id="g126"><g
         id="g128"
         clip-path="url(#clipPath130)"><path
           d="m 347.73,54.625 3.473,1.75 3.473,1.781 3.472,1.817 3.473,1.851 3.473,1.879 3.472,1.914 3.473,1.949 3.473,1.977 3.472,2.012 3.473,2.043 3.469,2.074 3.472,2.109 3.473,2.137 3.473,2.176 3.472,2.203 3.473,2.238 3.473,2.274 3.472,2.304 3.473,2.34 3.473,2.367 3.472,2.391 3.473,2.414 3.473,2.441 3.472,2.473 3.473,2.508 3.473,2.539 3.468,2.582 3.473,2.617 3.473,2.664 3.472,2.707 3.473,2.723 3.473,2.711 3.472,2.722 3.473,2.747 3.473,2.781 3.472,2.836 3.473,2.902 3.473,2.984 3.472,3.086 3.473,3.184 3.473,3.199 3.472,3.223 3.473,3.246 3.469,3.297 3.472,3.348 3.473,3.421 3.473,3.504 3.472,3.598 3.473,3.711 3.473,3.832 3.472,3.961 3.473,4.027 3.473,4.094 3.472,4.168 3.473,4.254 3.473,4.344 3.472,4.449 3.473,4.562 3.472,4.684 3.473,4.816 3.469,4.934 3.473,5.031 3.472,5.121 3.473,5.223 3.473,5.32 3.472,5.418 3.473,5.52 3.472,5.629 3.473,5.73 3.473,5.836 3.472,5.945 3.473,6.047 3.473,6.149 3.472,6.254 3.473,6.355 3.473,6.461 3.472,6.559 3.469,6.66 3.473,6.761"
           style="fill:none;stroke:#ef6638;stroke-width:2.84527612;stroke-linecap:butt;stroke-linejoin:round;stroke-miterlimit:10;stroke-opacity:1;stroke-dasharray:none"
           id="path134"
           inkscape:connector-curvature="0" /></g></g><g
       id="g136"><g
         id="g138"
         clip-path="url(#clipPath140)"><path
           d="m 347.73,70.559 3.473,2.066 3.473,2.098 3.472,2.125 3.473,2.152 3.473,2.18 3.472,2.211 3.473,2.238 3.473,2.266 3.472,2.293 3.473,2.32 3.469,2.347 3.472,2.375 3.473,2.403 3.473,2.429 3.472,2.461 3.473,2.485 3.473,2.519 3.472,2.547 3.473,2.574 3.473,2.602 3.472,2.621 3.473,2.645 3.473,2.668 3.472,2.695 3.473,2.723 3.473,2.753 3.468,2.79 3.473,2.824 3.473,2.863 3.472,2.902 3.473,2.918 3.473,2.903 3.472,2.91 3.473,2.93 3.473,2.957 3.472,3.007 3.473,3.067 3.473,3.14 3.472,3.227 3.473,3.316 3.473,3.325 3.472,3.332 3.473,3.355 3.469,3.395 3.472,3.441 3.473,3.508 3.473,3.586 3.472,3.679 3.473,3.786 3.473,3.906 3.472,4.031 3.473,4.098 3.473,4.156 3.472,4.223 3.473,4.304 3.473,4.391 3.472,4.492 3.473,4.606 3.472,4.726 3.473,4.856 3.469,4.968 3.473,5.063 3.472,5.148 3.473,5.246 3.473,5.34 3.472,5.434 3.473,5.535 3.472,5.637 3.473,5.738 3.473,5.844 3.472,5.945 3.473,6.047 3.473,6.145 3.472,6.25 3.473,6.343 3.473,6.446 3.472,6.543 3.469,6.644 3.473,6.734"
           style="fill:none;stroke:#2b9eb3;stroke-width:2.84527612;stroke-linecap:butt;stroke-linejoin:round;stroke-miterlimit:10;stroke-opacity:1;stroke-dasharray:none"
           id="path144"
           inkscape:connector-curvature="0" /></g></g><g
       id="g146"><g
         id="g148"
         clip-path="url(#clipPath150)"><path
           d="m 347.73,112.156 3.473,2.25 3.473,2.289 3.472,2.328 3.473,2.372 3.473,2.406 3.472,2.453 3.473,2.488 3.473,2.528 3.472,2.57 3.473,2.609 3.469,2.649 3.472,2.687 3.473,2.727 3.473,2.765 3.472,2.805 3.473,2.848 3.473,2.89 3.472,2.93 3.473,2.973 3.473,3.007 3.472,3.051 3.473,3.086 3.473,3.125 3.472,3.164 3.473,3.203 3.473,3.246 3.468,3.29 3.473,3.332 3.473,3.371 3.472,3.418 3.473,3.441 3.473,3.449 3.472,3.469 3.473,3.496 3.473,3.535 3.472,3.586 3.473,3.653 3.473,3.722 3.472,3.809 3.473,3.886 3.473,3.903 3.472,3.914 3.473,3.941 3.469,3.985 3.472,4.039 3.473,4.109 3.473,4.195 3.472,4.297 3.473,4.41 3.473,4.54 3.472,4.671 3.473,4.739 3.473,4.797 3.472,4.871 3.473,4.957 3.473,5.058 3.472,5.164 3.473,5.289 3.472,5.422 3.473,5.571 3.469,5.699 3.473,5.793 3.472,5.89 3.473,5.993 3.473,6.097 3.472,6.203 3.473,6.313 3.472,6.422 3.473,6.539 3.473,6.656 3.472,6.77 3.473,6.879 3.473,6.996 3.472,7.101 3.473,7.215 3.473,7.32 3.472,7.434 3.469,7.539 3.473,7.645"
           style="fill:none;stroke:#0e5c28;stroke-width:2.84527612;stroke-linecap:butt;stroke-linejoin:round;stroke-miterlimit:10;stroke-opacity:1;stroke-dasharray:none"
           id="path154"
           inkscape:connector-curvature="0" /></g></g><g
       id="g156"><g
         id="g158"
         clip-path="url(#clipPath160)"><path
           d="m 347.73,101.75 3.473,2.086 3.473,2.117 3.472,2.156 3.473,2.188 3.473,2.223 3.472,2.257 3.473,2.293 3.473,2.328 3.472,2.36 3.473,2.398 3.469,2.43 3.472,2.469 3.473,2.5 3.473,2.535 3.472,2.57 3.473,2.606 3.473,2.644 3.472,2.676 3.473,2.711 3.473,2.742 3.472,2.781 3.473,2.813 3.473,2.847 3.472,2.879 3.473,2.918 3.473,2.953 3.468,2.989 3.473,3.023 3.473,3.059 3.472,3.097 3.473,3.125 3.473,3.141 3.472,3.168 3.473,3.199 3.473,3.231 3.472,3.273 3.473,3.32 3.473,3.372 3.472,3.429 3.473,3.481 3.473,3.476 3.472,3.481 3.473,3.496 3.469,3.523 3.472,3.563 3.473,3.617 3.473,3.687 3.472,3.77 3.473,3.859 3.473,3.973 3.472,4.082 3.473,4.125 3.473,4.172 3.472,4.223 3.473,4.296 3.473,4.375 3.472,4.473 3.473,4.578 3.472,4.703 3.473,4.836 3.469,4.953 3.473,5.032 3.472,5.113 3.473,5.203 3.473,5.289 3.472,5.383 3.473,5.473 3.472,5.574 3.473,5.672 3.473,5.773 3.472,5.871 3.473,5.969 3.473,6.066 3.472,6.161 3.473,6.257 3.473,6.348 3.472,6.445 3.469,6.535 3.473,6.626"
           style="fill:none;stroke:#f9c500;stroke-width:2.84527612;stroke-linecap:butt;stroke-linejoin:round;stroke-miterlimit:10;stroke-opacity:1;stroke-dasharray:none"
           id="path164"
           inkscape:connector-curvature="0" /></g></g><g
       id="g166"><g
         id="g168"
         clip-path="url(#clipPath170)"><path
           d="m 347.73,57.391 3.473,1.586 3.473,1.636 3.472,1.688 3.473,1.73 3.473,1.781 3.472,1.833 3.473,1.878 3.473,1.926 3.472,1.973 3.473,2.023 3.469,2.067 3.472,2.117 3.473,2.164 3.473,2.211 3.472,2.262 3.473,2.308 3.473,2.36 3.472,2.41 3.473,2.461 3.473,2.504 3.472,2.55 3.473,2.594 3.473,2.641 3.472,2.687 3.473,2.739 3.473,2.789 3.468,2.839 3.473,2.899 3.473,2.949 3.472,3.012 3.473,3.047 3.473,3.066 3.472,3.098 3.473,3.136 3.473,3.192 3.472,3.25 3.473,3.32 3.473,3.403 3.472,3.492 3.473,3.582 3.473,3.594 3.472,3.605 3.473,3.637 3.469,3.683 3.472,3.754 3.473,3.832 3.473,3.934 3.472,4.051 3.473,4.183 3.473,4.34 3.472,4.492 3.473,4.563 3.473,4.625 3.472,4.707 3.473,4.804 3.473,4.926 3.472,5.059 3.473,5.211 3.472,5.383 3.473,5.566 3.469,5.73 3.473,5.848 3.472,5.965 3.473,6.09 3.473,6.215 3.472,6.343 3.473,6.481 3.472,6.617 3.473,6.758 3.473,6.898 3.472,7.043 3.473,7.18 3.473,7.316 3.472,7.45 3.473,7.585 3.473,7.723 3.472,7.852 3.469,7.98 3.473,8.113"
           style="fill:none;stroke:#6c254f;stroke-width:2.84527612;stroke-linecap:butt;stroke-linejoin:round;stroke-miterlimit:10;stroke-opacity:1;stroke-dasharray:none"
           id="path174"
           inkscape:connector-curvature="0" /></g></g><g
       id="g176"><g
         id="g178"
         clip-path="url(#clipPath180)"><path
           d="m 347.73,54.625 3.473,1.75 3.473,1.781 3.472,1.817 3.473,1.851 3.473,1.879 3.472,1.914 3.473,1.949 3.473,1.977 3.472,2.012 3.473,2.043 3.469,2.074 3.472,2.109 3.473,2.137 3.473,2.176 3.472,2.203 3.473,2.238 3.473,2.274 3.472,2.304 3.473,2.34 3.473,2.367 3.472,2.391 3.473,2.414 3.473,2.441 3.472,2.473 3.473,2.508 3.473,2.539 3.468,2.582 3.473,2.617 3.473,2.664 3.472,2.707 3.473,2.723 3.473,2.711 3.472,2.722 3.473,2.747 3.473,2.781 3.472,2.836 3.473,2.902 3.473,2.984 3.472,3.086 3.473,3.184 3.473,3.199 3.472,3.223 3.473,3.246 3.469,3.297 3.472,3.348 3.473,3.421 3.473,3.504 3.472,3.598 3.473,3.711 3.473,3.832 3.472,3.961 3.473,4.027 3.473,4.094 3.472,4.168 3.473,4.254 3.473,4.344 3.472,4.449 3.473,4.562 3.472,4.684 3.473,4.816 3.469,4.934 3.473,5.031 3.472,5.121 3.473,5.223 3.473,5.32 3.472,5.418 3.473,5.52 3.472,5.629 3.473,5.73 3.473,5.836 3.472,5.945 3.473,6.047 3.473,6.149 3.472,6.254 3.473,6.355 3.473,6.461 3.472,6.559 3.469,6.66 3.473,6.761"
           style="fill:none;stroke:#ef6638;stroke-width:2.84527612;stroke-linecap:butt;stroke-linejoin:round;stroke-miterlimit:10;stroke-opacity:1;stroke-dasharray:none"
           id="path184"
           inkscape:connector-curvature="0" /></g></g><g
       id="g186"><g
         id="g188"
         clip-path="url(#clipPath190)"><path
           d="m 347.73,70.559 3.473,2.066 3.473,2.098 3.472,2.125 3.473,2.152 3.473,2.18 3.472,2.211 3.473,2.238 3.473,2.266 3.472,2.293 3.473,2.32 3.469,2.347 3.472,2.375 3.473,2.403 3.473,2.429 3.472,2.461 3.473,2.485 3.473,2.519 3.472,2.547 3.473,2.574 3.473,2.602 3.472,2.621 3.473,2.645 3.473,2.668 3.472,2.695 3.473,2.723 3.473,2.753 3.468,2.79 3.473,2.824 3.473,2.863 3.472,2.902 3.473,2.918 3.473,2.903 3.472,2.91 3.473,2.93 3.473,2.957 3.472,3.007 3.473,3.067 3.473,3.14 3.472,3.227 3.473,3.316 3.473,3.325 3.472,3.332 3.473,3.355 3.469,3.395 3.472,3.441 3.473,3.508 3.473,3.586 3.472,3.679 3.473,3.786 3.473,3.906 3.472,4.031 3.473,4.098 3.473,4.156 3.472,4.223 3.473,4.304 3.473,4.391 3.472,4.492 3.473,4.606 3.472,4.726 3.473,4.856 3.469,4.968 3.473,5.063 3.472,5.148 3.473,5.246 3.473,5.34 3.472,5.434 3.473,5.535 3.472,5.637 3.473,5.738 3.473,5.844 3.472,5.945 3.473,6.047 3.473,6.145 3.472,6.25 3.473,6.343 3.473,6.446 3.472,6.543 3.469,6.644 3.473,6.734"
           style="fill:none;stroke:#2b9eb3;stroke-width:2.84527612;stroke-linecap:butt;stroke-linejoin:round;stroke-miterlimit:10;stroke-opacity:1;stroke-dasharray:none"
           id="path194"
           inkscape:connector-curvature="0" /></g></g><g
       id="g196"><g
         id="g198"
         clip-path="url(#clipPath200)"><path
           d="m 347.73,112.156 3.473,2.25 3.473,2.289 3.472,2.328 3.473,2.372 3.473,2.406 3.472,2.453 3.473,2.488 3.473,2.528 3.472,2.57 3.473,2.609 3.469,2.649 3.472,2.687 3.473,2.727 3.473,2.765 3.472,2.805 3.473,2.848 3.473,2.89 3.472,2.93 3.473,2.973 3.473,3.007 3.472,3.051 3.473,3.086 3.473,3.125 3.472,3.164 3.473,3.203 3.473,3.246 3.468,3.29 3.473,3.332 3.473,3.371 3.472,3.418 3.473,3.441 3.473,3.449 3.472,3.469 3.473,3.496 3.473,3.535 3.472,3.586 3.473,3.653 3.473,3.722 3.472,3.809 3.473,3.886 3.473,3.903 3.472,3.914 3.473,3.941 3.469,3.985 3.472,4.039 3.473,4.109 3.473,4.195 3.472,4.297 3.473,4.41 3.473,4.54 3.472,4.671 3.473,4.739 3.473,4.797 3.472,4.871 3.473,4.957 3.473,5.058 3.472,5.164 3.473,5.289 3.472,5.422 3.473,5.571 3.469,5.699 3.473,5.793 3.472,5.89 3.473,5.993 3.473,6.097 3.472,6.203 3.473,6.313 3.472,6.422 3.473,6.539 3.473,6.656 3.472,6.77 3.473,6.879 3.473,6.996 3.472,7.101 3.473,7.215 3.473,7.32 3.472,7.434 3.469,7.539 3.473,7.645"
           style="fill:none;stroke:#0e5c28;stroke-width:2.84527612;stroke-linecap:butt;stroke-linejoin:round;stroke-miterlimit:10;stroke-opacity:1;stroke-dasharray:none"
           id="path204"
           inkscape:connector-curvature="0" /></g></g><g
       id="g206"><g
         id="g208"
         clip-path="url(#clipPath210)"><path
           d="m 347.73,101.75 3.473,2.086 3.473,2.117 3.472,2.156 3.473,2.188 3.473,2.223 3.472,2.257 3.473,2.293 3.473,2.328 3.472,2.36 3.473,2.398 3.469,2.43 3.472,2.469 3.473,2.5 3.473,2.535 3.472,2.57 3.473,2.606 3.473,2.644 3.472,2.676 3.473,2.711 3.473,2.742 3.472,2.781 3.473,2.813 3.473,2.847 3.472,2.879 3.473,2.918 3.473,2.953 3.468,2.989 3.473,3.023 3.473,3.059 3.472,3.097 3.473,3.125 3.473,3.141 3.472,3.168 3.473,3.199 3.473,3.231 3.472,3.273 3.473,3.32 3.473,3.372 3.472,3.429 3.473,3.481 3.473,3.476 3.472,3.481 3.473,3.496 3.469,3.523 3.472,3.563 3.473,3.617 3.473,3.687 3.472,3.77 3.473,3.859 3.473,3.973 3.472,4.082 3.473,4.125 3.473,4.172 3.472,4.223 3.473,4.296 3.473,4.375 3.472,4.473 3.473,4.578 3.472,4.703 3.473,4.836 3.469,4.953 3.473,5.032 3.472,5.113 3.473,5.203 3.473,5.289 3.472,5.383 3.473,5.473 3.472,5.574 3.473,5.672 3.473,5.773 3.472,5.871 3.473,5.969 3.473,6.066 3.472,6.161 3.473,6.257 3.473,6.348 3.472,6.445 3.469,6.535 3.473,6.626"
           style="fill:none;stroke:#f9c500;stroke-width:2.84527612;stroke-linecap:butt;stroke-linejoin:round;stroke-miterlimit:10;stroke-opacity:1;stroke-dasharray:none"
           id="path214"
           inkscape:connector-curvature="0" /></g></g><path
       inkscape:connector-curvature="0"
       id="path228"
       style="fill:none;stroke:#000000;stroke-width:1.42263806;stroke-linecap:butt;stroke-linejoin:round;stroke-miterlimit:10;stroke-opacity:1;stroke-dasharray:none"
       d="m 59.234,34.781 0,436.496" /><text
       id="text230"
       transform="scale(1,-1)"
       x="20.445312"
       y="-60.664062"><tspan
         id="tspan232"
         sodipodi:role="line"
         y="-60.664062"
         x="20.445312 25.616112 28.201511 33.372311 38.54311 43.974312 49.145111"
         style="font-size:9.30000019px;font-variant:normal;writing-mode:lr-tb;fill:#000000;fill-opacity:1;fill-rule:nonzero;stroke:none;font-family:Nimbus Sans L;-inkscape-font-specification:NimbusSanL-Regu">1.0e+08</tspan><tspan
         id="tspan234"
         sodipodi:role="line"
         y="-146.29297"
         x="20.445312 25.616112 28.201511 33.372311 38.54311 43.974312 49.145111"
         style="font-size:9.30000019px;font-variant:normal;writing-mode:lr-tb;fill:#000000;fill-opacity:1;fill-rule:nonzero;stroke:none;font-family:Nimbus Sans L;-inkscape-font-specification:NimbusSanL-Regu">1.5e+08</tspan><tspan
         id="tspan236"
         sodipodi:role="line"
         y="-231.91797"
         x="20.445312 25.616112 28.201511 33.372311 38.54311 43.974312 49.145111"
         style="font-size:9.30000019px;font-variant:normal;writing-mode:lr-tb;fill:#000000;fill-opacity:1;fill-rule:nonzero;stroke:none;font-family:Nimbus Sans L;-inkscape-font-specification:NimbusSanL-Regu">2.0e+08</tspan><tspan
         id="tspan238"
         sodipodi:role="line"
         y="-317.54688"
         x="20.445312 25.616112 28.201511 33.372311 38.54311 43.974312 49.145111"
         style="font-size:9.30000019px;font-variant:normal;writing-mode:lr-tb;fill:#000000;fill-opacity:1;fill-rule:nonzero;stroke:none;font-family:Nimbus Sans L;-inkscape-font-specification:NimbusSanL-Regu">2.5e+08</tspan><tspan
         id="tspan240"
         sodipodi:role="line"
         y="-403.17188"
         x="20.445312 25.616112 28.201511 33.372311 38.54311 43.974312 49.145111"
         style="font-size:9.30000019px;font-variant:normal;writing-mode:lr-tb;fill:#000000;fill-opacity:1;fill-rule:nonzero;stroke:none;font-family:Nimbus Sans L;-inkscape-font-specification:NimbusSanL-Regu">3.0e+08</tspan></text>
<path
       inkscape:connector-curvature="0"
       id="path242"
       style="fill:none;stroke:#000000;stroke-width:1.42263806;stroke-linecap:butt;stroke-linejoin:round;stroke-miterlimit:10;stroke-opacity:1;stroke-dasharray:none"
       d="m 56.496,64.055 2.738,0" /><path
       inkscape:connector-curvature="0"
       id="path244"
       style="fill:none;stroke:#000000;stroke-width:1.42263806;stroke-linecap:butt;stroke-linejoin:round;stroke-miterlimit:10;stroke-opacity:1;stroke-dasharray:none"
       d="m 56.496,149.684 2.738,0" /><path
       inkscape:connector-curvature="0"
       id="path246"
       style="fill:none;stroke:#000000;stroke-width:1.42263806;stroke-linecap:butt;stroke-linejoin:round;stroke-miterlimit:10;stroke-opacity:1;stroke-dasharray:none"
       d="m 56.496,235.309 2.738,0" /><path
       inkscape:connector-curvature="0"
       id="path248"
       style="fill:none;stroke:#000000;stroke-width:1.42263806;stroke-linecap:butt;stroke-linejoin:round;stroke-miterlimit:10;stroke-opacity:1;stroke-dasharray:none"
       d="m 56.496,320.938 2.738,0" /><path
       inkscape:connector-curvature="0"
       id="path250"
       style="fill:none;stroke:#000000;stroke-width:1.42263806;stroke-linecap:butt;stroke-linejoin:round;stroke-miterlimit:10;stroke-opacity:1;stroke-dasharray:none"
       d="m 56.496,406.562 2.738,0" /><path
       inkscape:connector-curvature="0"
       id="path252"
       style="fill:none;stroke:#000000;stroke-width:1.42263806;stroke-linecap:butt;stroke-linejoin:round;stroke-miterlimit:10;stroke-opacity:1;stroke-dasharray:none"
       d="m 59.234,34.781 274.325,0" /><path
       inkscape:connector-curvature="0"
       id="path254"
       style="fill:none;stroke:#000000;stroke-width:1.42263806;stroke-linecap:butt;stroke-linejoin:round;stroke-miterlimit:10;stroke-opacity:1;stroke-dasharray:none"
       d="m 59.234,32.043 0,2.738" /><path
       inkscape:connector-curvature="0"
       id="path256"
       style="fill:none;stroke:#000000;stroke-width:1.42263806;stroke-linecap:butt;stroke-linejoin:round;stroke-miterlimit:10;stroke-opacity:1;stroke-dasharray:none"
       d="m 114.102,32.043 0,2.738" /><path
       inkscape:connector-curvature="0"
       id="path258"
       style="fill:none;stroke:#000000;stroke-width:1.42263806;stroke-linecap:butt;stroke-linejoin:round;stroke-miterlimit:10;stroke-opacity:1;stroke-dasharray:none"
       d="m 168.965,32.043 0,2.738" /><path
       inkscape:connector-curvature="0"
       id="path260"
       style="fill:none;stroke:#000000;stroke-width:1.42263806;stroke-linecap:butt;stroke-linejoin:round;stroke-miterlimit:10;stroke-opacity:1;stroke-dasharray:none"
       d="m 223.828,32.043 0,2.738" /><path
       inkscape:connector-curvature="0"
       id="path262"
       style="fill:none;stroke:#000000;stroke-width:1.42263806;stroke-linecap:butt;stroke-linejoin:round;stroke-miterlimit:10;stroke-opacity:1;stroke-dasharray:none"
       d="m 278.691,32.043 0,2.738" /><path
       inkscape:connector-curvature="0"
       id="path264"
       style="fill:none;stroke:#000000;stroke-width:1.42263806;stroke-linecap:butt;stroke-linejoin:round;stroke-miterlimit:10;stroke-opacity:1;stroke-dasharray:none"
       d="m 333.559,32.043 0,2.738" /><text
       id="text266"
       transform="scale(1,-1)"
       x="54.066406"
       y="-23.070312"><tspan
         id="tspan268"
         sodipodi:role="line"
         y="-23.070312"
         x="54.066406 59.237206 108.9364 114.1072 163.7971 168.9679 218.66016 223.83096 273.52084 278.69165 328.39087 333.56165"
         style="font-size:9.30000019px;font-variant:normal;writing-mode:lr-tb;fill:#000000;fill-opacity:1;fill-rule:nonzero;stroke:none;font-family:Nimbus Sans L;-inkscape-font-specification:NimbusSanL-Regu">152025303540</tspan></text>
<path
       inkscape:connector-curvature="0"
       id="path270"
       style="fill:none;stroke:#000000;stroke-width:1.42263806;stroke-linecap:butt;stroke-linejoin:round;stroke-miterlimit:10;stroke-opacity:1;stroke-dasharray:none"
       d="m 347.73,34.781 274.321,0" /><path
       inkscape:connector-curvature="0"
       id="path272"
       style="fill:none;stroke:#000000;stroke-width:1.42263806;stroke-linecap:butt;stroke-linejoin:round;stroke-miterlimit:10;stroke-opacity:1;stroke-dasharray:none"
       d="m 347.73,32.043 0,2.738" /><path
       inkscape:connector-curvature="0"
       id="path274"
       style="fill:none;stroke:#000000;stroke-width:1.42263806;stroke-linecap:butt;stroke-linejoin:round;stroke-miterlimit:10;stroke-opacity:1;stroke-dasharray:none"
       d="m 402.594,32.043 0,2.738" /><path
       inkscape:connector-curvature="0"
       id="path276"
       style="fill:none;stroke:#000000;stroke-width:1.42263806;stroke-linecap:butt;stroke-linejoin:round;stroke-miterlimit:10;stroke-opacity:1;stroke-dasharray:none"
       d="m 457.461,32.043 0,2.738" /><path
       inkscape:connector-curvature="0"
       id="path278"
       style="fill:none;stroke:#000000;stroke-width:1.42263806;stroke-linecap:butt;stroke-linejoin:round;stroke-miterlimit:10;stroke-opacity:1;stroke-dasharray:none"
       d="m 512.324,32.043 0,2.738" /><path
       inkscape:connector-curvature="0"
       id="path280"
       style="fill:none;stroke:#000000;stroke-width:1.42263806;stroke-linecap:butt;stroke-linejoin:round;stroke-miterlimit:10;stroke-opacity:1;stroke-dasharray:none"
       d="m 567.188,32.043 0,2.738" /><path
       inkscape:connector-curvature="0"
       id="path282"
       style="fill:none;stroke:#000000;stroke-width:1.42263806;stroke-linecap:butt;stroke-linejoin:round;stroke-miterlimit:10;stroke-opacity:1;stroke-dasharray:none"
       d="m 622.051,32.043 0,2.738" /><text
       id="text284"
       transform="scale(1,-1)"
       x="342.5625"
       y="-23.070312"><tspan
         id="tspan286"
         sodipodi:role="line"
         y="-23.070312"
         x="342.5625 347.73331 397.42319 402.59399 452.29321 457.46399 507.15625 512.32703 562.01697 567.18774 616.88696 622.05774"
         style="font-size:9.30000019px;font-variant:normal;writing-mode:lr-tb;fill:#000000;fill-opacity:1;fill-rule:nonzero;stroke:none;font-family:Nimbus Sans L;-inkscape-font-specification:NimbusSanL-Regu">152025303540</tspan></text>
<g
       id="g3522"><text
         y="-10.171875"
         x="293.9375"
         transform="scale(1,-1)"
         id="text288"><tspan
           style="font-size:11.5px;font-variant:normal;font-weight:bold;writing-mode:lr-tb;fill:#000000;fill-opacity:1;fill-rule:nonzero;stroke:none;font-family:Nimbus Sans L;-inkscape-font-specification:NimbusSanL-Bold"
           x="293.9375 300.96399 307.358 317.58151 324.608 331.00201 335.47549 341.86951 345.69901 352.72549 357.19901 363.59302 366.79001"
           y="-10.171875"
           sodipodi:role="line"
           id="tspan290">Temperature (</tspan></text>
<text
         y="-10.171875"
         x="370.61951"
         transform="scale(1,-1)"
         id="text292"><tspan
           style="font-size:11.5px;font-variant:normal;font-weight:normal;writing-mode:lr-tb;fill:#000000;fill-opacity:1;fill-rule:nonzero;stroke:none;font-family:Symbol;-inkscape-font-specification:Symbol"
           x="370.61951"
           y="-10.171875"
           id="tspan294">°</tspan></text>
<text
         y="-10.171875"
         x="375.21951"
         transform="scale(1,-1)"
         id="text296"><tspan
           style="font-size:11.5px;font-variant:normal;font-weight:bold;writing-mode:lr-tb;fill:#000000;fill-opacity:1;fill-rule:nonzero;stroke:none;font-family:Nimbus Sans L;-inkscape-font-specification:NimbusSanL-Bold"
           x="375.21951 383.52249"
           y="-10.171875"
           sodipodi:role="line"
           id="tspan298">C)</tspan></text>
</g><text
       id="text300"
       transform="matrix(0,1,1,0,0,0)"
       x="162.28125"
       y="16.0625"><tspan
         id="tspan302"
         sodipodi:role="line"
         y="16.0625"
         x="162.28125 170.58424 179.53125 185.92525 189.12225 196.79276 207.01625 210.21326 216.60725 223.00125 226.19824 233.22475 240.25125 246.64525 249.84225 253.67175 263.89526 270.92175 274.11874 280.51276 286.90674 293.93323 297.13025 303.52423 309.91824 313.11523 319.50925 329.73276 333.56226 339.95624"
         style="font-size:11.5px;font-variant:normal;font-weight:bold;writing-mode:lr-tb;fill:#000000;fill-opacity:1;fill-rule:nonzero;stroke:none;font-family:Nimbus Sans L;-inkscape-font-specification:NimbusSanL-Bold">NOx Emissions (molecules cm<tspan
   id="tspan3315"
   style="font-size:10.39999962px;baseline-shift:super">-3</tspan>)</tspan></text>
<g
       transform="matrix(0.97324193,0,0,-0.93388344,-85.689403,665.47902)"
       id="layer1"
       inkscape:label="Layer 1"><g
         transform="matrix(1.25,0,0,-1.25,85.149201,781.9057)"
         id="g3276"><text
           id="text38"
           transform="scale(1,-1)"
           x="56"
           y="-400"><tspan
             id="tspan40"
             sodipodi:role="line"
             y="-400"
             x="56 66.757812 77.515594 81.657806 89.107788"
             style="font-size:14.89999962px;font-variant:normal;writing-mode:lr-tb;fill:#ef6638;fill-opacity:1;fill-rule:nonzero;stroke:none;font-family:Nimbus Sans L;-inkscape-font-specification:NimbusSanL-Regu">CRIv2</tspan></text>
<text
           id="text42"
           transform="scale(1,-1)"
           x="56"
           y="-384"><tspan
             id="tspan44"
             sodipodi:role="line"
             y="-384"
             x="56 68.411713 80.003906 89.107788 99.046112 109.80389 118.90781 123.86951"
             style="font-size:14.89999962px;font-variant:normal;writing-mode:lr-tb;fill:#2b9eb3;fill-opacity:1;fill-rule:nonzero;stroke:none;font-family:Nimbus Sans L;-inkscape-font-specification:NimbusSanL-Regu">MOZART-4</tspan></text>
<text
           id="text46"
           transform="scale(1,-1)"
           x="56"
           y="-416"><tspan
             id="tspan48"
             sodipodi:role="line"
             y="-416"
             x="56 68.411713 79.169495 91.581207 99.031189 107.31561 111.45779"
             style="font-size:14.89999962px;font-variant:normal;writing-mode:lr-tb;fill:#6c254f;fill-opacity:1;fill-rule:nonzero;stroke:none;font-family:Nimbus Sans L;-inkscape-font-specification:NimbusSanL-Regu">MCMv3.2</tspan></text>
<text
           id="text50"
           transform="scale(1,-1)"
           x="56"
           y="-432"><tspan
             id="tspan52"
             sodipodi:role="line"
             y="-432"
             x="56 66.757812 76.696106 87.453888 99.865601"
             style="font-size:14.89999962px;font-variant:normal;writing-mode:lr-tb;fill:#f9c500;fill-opacity:1;fill-rule:nonzero;stroke:none;font-family:Nimbus Sans L;-inkscape-font-specification:NimbusSanL-Regu">RADM2</tspan></text>
<text
           id="text54"
           transform="scale(1,-1)"
           x="56"
           y="-448"><tspan
             id="tspan56"
             sodipodi:role="line"
             y="-448"
             x="56 66.757812 76.696106 84.980499"
             style="font-size:14.89999962px;font-variant:normal;writing-mode:lr-tb;fill:#0e5c28;fill-opacity:1;fill-rule:nonzero;stroke:none;font-family:Nimbus Sans L;-inkscape-font-specification:NimbusSanL-Regu">CB05</tspan></text>
</g></g><g
       transform="matrix(0.8,0,0,-0.8,61.592103,708.16831)"
       id="layer1-3"
       inkscape:label="Layer 1"><g
         transform="matrix(1.25,0,0,-1.25,-77.337947,872.16443)"
         id="g3288"><text
           xml:space="preserve"
           style="font-size:12.80000019px;font-style:normal;font-variant:normal;font-weight:bold;font-stretch:normal;line-height:125%;letter-spacing:0px;word-spacing:0px;fill:#000000;fill-opacity:1;stroke:none;font-family:Nimbus Sans L;-inkscape-font-specification:Sans Bold"
           x="52.391895"
           y="-471.99997"
           id="text3281"
           sodipodi:linespacing="125%"
           transform="scale(1,-1)"><tspan
             sodipodi:role="line"
             id="tspan3283"
             x="52.391895"
             y="-471.99997">Temperature Independent isoprene Emissions</tspan></text>
<text
           xml:space="preserve"
           style="font-size:12.80000019px;font-style:normal;font-variant:normal;font-weight:bold;font-stretch:normal;line-height:125%;letter-spacing:0px;word-spacing:0px;fill:#000000;fill-opacity:1;stroke:none;font-family:Nimbus Sans L;-inkscape-font-specification:Sans Bold"
           x="357.5029"
           y="-471.99997"
           id="text3281-3"
           sodipodi:linespacing="125%"
           transform="scale(1,-1)"><tspan
             sodipodi:role="line"
             id="tspan3283-4"
             x="357.5029"
             y="-471.99997">Temperature Dependent isoprene Emissions</tspan></text>
</g></g></g></svg>