<?xml version="1.0" encoding="UTF-8" standalone="no"?>
<!-- Created with Inkscape (http://www.inkscape.org/) -->

<svg
   xmlns:dc="http://purl.org/dc/elements/1.1/"
   xmlns:cc="http://creativecommons.org/ns#"
   xmlns:rdf="http://www.w3.org/1999/02/22-rdf-syntax-ns#"
   xmlns:svg="http://www.w3.org/2000/svg"
   xmlns="http://www.w3.org/2000/svg"
   xmlns:sodipodi="http://sodipodi.sourceforge.net/DTD/sodipodi-0.dtd"
   xmlns:inkscape="http://www.inkscape.org/namespaces/inkscape"
   id="svg2"
   version="1.1"
   inkscape:version="0.48.3.1 r9886"
   width="894.03534"
   height="557.09869"
   xml:space="preserve"
   sodipodi:docname="O3-T_correlation.svg"><metadata
     id="metadata8"><rdf:RDF><cc:Work
         rdf:about=""><dc:format>image/svg+xml</dc:format><dc:type
           rdf:resource="http://purl.org/dc/dcmitype/StillImage" /><dc:title /></cc:Work></rdf:RDF></metadata><defs
     id="defs6"><clipPath
   clipPathUnits="userSpaceOnUse"
   id="clipPath30"><path
     d="m 35.715,344 301.285,0 0,-29 -301.285,0 0,29 z"
     id="path32"
     inkscape:connector-curvature="0" /></clipPath><clipPath
   clipPathUnits="userSpaceOnUse"
   id="clipPath40"><path
     d="m 35.715,342 301.285,0 0,-27 -301.285,0 0,27 z"
     id="path42"
     inkscape:connector-curvature="0" /></clipPath><clipPath
   clipPathUnits="userSpaceOnUse"
   id="clipPath50"><path
     d="m 35.715,344 301.285,0 0,-26 -301.285,0 0,26 z"
     id="path52"
     inkscape:connector-curvature="0" /></clipPath><clipPath
   clipPathUnits="userSpaceOnUse"
   id="clipPath60"><path
     d="m 35.715,358 301.285,0 0,-38 -301.285,0 0,38 z"
     id="path62"
     inkscape:connector-curvature="0" /></clipPath><clipPath
   clipPathUnits="userSpaceOnUse"
   id="clipPath70"><path
     d="m 35.715,353 301.285,0 0,-36 -301.285,0 0,36 z"
     id="path72"
     inkscape:connector-curvature="0" /></clipPath><clipPath
   clipPathUnits="userSpaceOnUse"
   id="clipPath80"><path
     d="m 35.715,240 301.285,0 0,-50 -301.285,0 0,50 z"
     id="path82"
     inkscape:connector-curvature="0" /></clipPath><clipPath
   clipPathUnits="userSpaceOnUse"
   id="clipPath90"><path
     d="m 35.715,237 301.285,0 0,-46 -301.285,0 0,46 z"
     id="path92"
     inkscape:connector-curvature="0" /></clipPath><clipPath
   clipPathUnits="userSpaceOnUse"
   id="clipPath100"><path
     d="m 35.715,235 301.285,0 0,-43 -301.285,0 0,43 z"
     id="path102"
     inkscape:connector-curvature="0" /></clipPath><clipPath
   clipPathUnits="userSpaceOnUse"
   id="clipPath110"><path
     d="m 35.715,260 301.285,0 0,-63 -301.285,0 0,63 z"
     id="path112"
     inkscape:connector-curvature="0" /></clipPath><clipPath
   clipPathUnits="userSpaceOnUse"
   id="clipPath120"><path
     d="m 35.715,252 301.285,0 0,-58 -301.285,0 0,58 z"
     id="path122"
     inkscape:connector-curvature="0" /></clipPath><clipPath
   clipPathUnits="userSpaceOnUse"
   id="clipPath130"><path
     d="m 35.715,100 301.285,0 0,-59 -301.285,0 0,59 z"
     id="path132"
     inkscape:connector-curvature="0" /></clipPath><clipPath
   clipPathUnits="userSpaceOnUse"
   id="clipPath140"><path
     d="M 35.715,96 337,96 l 0,-54 -301.285,0 0,54 z"
     id="path142"
     inkscape:connector-curvature="0" /></clipPath><clipPath
   clipPathUnits="userSpaceOnUse"
   id="clipPath150"><path
     d="M 35.715,88 337,88 l 0,-49 -301.285,0 0,49 z"
     id="path152"
     inkscape:connector-curvature="0" /></clipPath><clipPath
   clipPathUnits="userSpaceOnUse"
   id="clipPath160"><path
     d="m 35.715,120 301.285,0 0,-75 -301.285,0 0,75 z"
     id="path162"
     inkscape:connector-curvature="0" /></clipPath><clipPath
   clipPathUnits="userSpaceOnUse"
   id="clipPath170"><path
     d="m 35.715,111 301.285,0 0,-67 -301.285,0 0,67 z"
     id="path172"
     inkscape:connector-curvature="0" /></clipPath><clipPath
   clipPathUnits="userSpaceOnUse"
   id="clipPath180"><path
     d="m 350.633,359 301.367,0 0,-44 -301.367,0 0,44 z"
     id="path182"
     inkscape:connector-curvature="0" /></clipPath><clipPath
   clipPathUnits="userSpaceOnUse"
   id="clipPath190"><path
     d="m 350.633,357 301.367,0 0,-42 -301.367,0 0,42 z"
     id="path192"
     inkscape:connector-curvature="0" /></clipPath><clipPath
   clipPathUnits="userSpaceOnUse"
   id="clipPath200"><path
     d="m 350.633,357 301.367,0 0,-40 -301.367,0 0,40 z"
     id="path202"
     inkscape:connector-curvature="0" /></clipPath><clipPath
   clipPathUnits="userSpaceOnUse"
   id="clipPath210"><path
     d="m 350.633,373 301.367,0 0,-53 -301.367,0 0,53 z"
     id="path212"
     inkscape:connector-curvature="0" /></clipPath><clipPath
   clipPathUnits="userSpaceOnUse"
   id="clipPath220"><path
     d="m 350.633,365 301.367,0 0,-48 -301.367,0 0,48 z"
     id="path222"
     inkscape:connector-curvature="0" /></clipPath><clipPath
   clipPathUnits="userSpaceOnUse"
   id="clipPath230"><path
     d="m 350.633,266 301.746,0 0,-76 -301.746,0 0,76 z"
     id="path232"
     inkscape:connector-curvature="0" /></clipPath><clipPath
   clipPathUnits="userSpaceOnUse"
   id="clipPath240"><path
     d="m 350.633,262 301.367,0 0,-71 -301.367,0 0,71 z"
     id="path242"
     inkscape:connector-curvature="0" /></clipPath><clipPath
   clipPathUnits="userSpaceOnUse"
   id="clipPath250"><path
     d="m 350.633,257 301.367,0 0,-66 -301.367,0 0,66 z"
     id="path252"
     inkscape:connector-curvature="0" /></clipPath><clipPath
   clipPathUnits="userSpaceOnUse"
   id="clipPath260"><path
     d="m 350.633,285 301.746,0 0,-88 -301.746,0 0,88 z"
     id="path262"
     inkscape:connector-curvature="0" /></clipPath><clipPath
   clipPathUnits="userSpaceOnUse"
   id="clipPath270"><path
     d="m 350.633,270 301.367,0 0,-76 -301.367,0 0,76 z"
     id="path272"
     inkscape:connector-curvature="0" /></clipPath><clipPath
   clipPathUnits="userSpaceOnUse"
   id="clipPath280"><path
     d="m 350.633,135 301.746,0 0,-94 -301.746,0 0,94 z"
     id="path282"
     inkscape:connector-curvature="0" /></clipPath><clipPath
   clipPathUnits="userSpaceOnUse"
   id="clipPath290"><path
     d="m 350.633,132 301.746,0 0,-90 -301.746,0 0,90 z"
     id="path292"
     inkscape:connector-curvature="0" /></clipPath><clipPath
   clipPathUnits="userSpaceOnUse"
   id="clipPath300"><path
     d="m 350.633,121 301.746,0 0,-83 -301.746,0 0,83 z"
     id="path302"
     inkscape:connector-curvature="0" /></clipPath><clipPath
   clipPathUnits="userSpaceOnUse"
   id="clipPath310"><path
     d="m 350.633,153 301.746,0 0,-109 -301.746,0 0,109 z"
     id="path312"
     inkscape:connector-curvature="0" /></clipPath><clipPath
   clipPathUnits="userSpaceOnUse"
   id="clipPath320"><path
     d="m 350.633,137 301.746,0 0,-94 -301.746,0 0,94 z"
     id="path322"
     inkscape:connector-curvature="0" /></clipPath>




</defs><sodipodi:namedview
     pagecolor="#ffffff"
     bordercolor="#666666"
     borderopacity="1"
     objecttolerance="10"
     gridtolerance="10"
     guidetolerance="10"
     inkscape:pageopacity="0"
     inkscape:pageshadow="2"
     inkscape:window-width="1920"
     inkscape:window-height="1023"
     id="namedview4"
     showgrid="false"
     fit-margin-top="0"
     fit-margin-left="0"
     fit-margin-right="0"
     fit-margin-bottom="0"
     inkscape:zoom="1.5088889"
     inkscape:cx="331.59222"
     inkscape:cy="115.18767"
     inkscape:window-x="0"
     inkscape:window-y="27"
     inkscape:window-maximized="1"
     inkscape:current-layer="g10" /><g
     id="g10"
     inkscape:groupmode="layer"
     inkscape:label="O3-T_correlation"
     transform="matrix(1.25,0,0,-1.25,-5.9646539,564.3888)"><path
   inkscape:connector-curvature="0"
   id="path14"
   style="fill:#ffffff;fill-opacity:1;fill-rule:nonzero;stroke:none"
   d="m 4.7717231,5.832106 715.2282769,0 0,445.678934 -715.2282769,0 0,-445.678934 z" /><g
   clip-path="url(#clipPath30)"
   id="g28"><path
     inkscape:connector-curvature="0"
     id="path34"
     style="fill:none;stroke:#6c254f;stroke-width:2.84527612;stroke-linecap:butt;stroke-linejoin:round;stroke-miterlimit:10;stroke-opacity:1;stroke-dasharray:none"
     d="m 35.715,316.855 6.015,0.481 6.016,0.059 6.012,0.058 6.015,0.5 6.016,0.07 6.016,0.516 6.015,0.086 6.016,0.535 6.012,0.098 6.015,0.105 6.016,0.563 6.016,0.121 6.015,0.582 6.012,0.141 6.016,0.605 6.015,0.16 6.016,0.637 6.015,0.176 6.016,0.664 6.012,0.199 6.015,0.691 6.016,0.215 6.016,0.715 6.015,0.234 6.012,0.743 6.016,0.753 6.015,0.258 6.016,0.774 6.015,0.269 6.012,0.793 6.016,0.801 6.015,0.281 6.016,0.813 6.016,0.82 6.015,0.289 6.012,0.828 6.016,0.828 6.015,0.289 6.016,0.833 6.015,0.828 6.012,0.285 6.016,0.828 12.031,1.648 6.016,0.27 6.015,0.812 6.012,0.809 6.016,0.801 6.015,0.25 6.016,0.793" /></g><g
   clip-path="url(#clipPath40)"
   id="g38"><path
     inkscape:connector-curvature="0"
     id="path44"
     style="fill:none;stroke:#ef6638;stroke-width:2.84527612;stroke-linecap:butt;stroke-linejoin:round;stroke-miterlimit:10;stroke-opacity:1;stroke-dasharray:none"
     d="m 35.715,317.242 6.015,0.059 6.016,0.504 6.012,0.066 6.015,0.07 6.016,0.532 6.016,0.086 6.015,0.546 6.016,0.098 6.012,0.57 12.031,0.235 6.016,0.609 6.015,0.137 6.012,0.633 6.016,0.156 6.015,0.664 6.016,0.176 6.015,0.687 6.016,0.196 6.012,0.199 6.015,0.726 6.016,0.215 6.016,0.742 6.015,0.227 6.012,0.766 6.016,0.234 6.015,0.777 6.016,0.239 6.015,0.789 6.012,0.242 6.016,0.793 6.015,0.789 6.016,0.242 6.016,0.789 6.015,0.231 6.012,0.789 6.016,0.218 6.015,0.782 6.016,0.207 6.015,0.769 6.012,0.762 6.016,0.191 6.015,0.75 6.016,0.743 6.016,0.171 6.015,0.727 6.012,0.16 6.016,0.711 6.015,0.707 6.016,0.695" /></g><g
   clip-path="url(#clipPath50)"
   id="g48"><path
     inkscape:connector-curvature="0"
     id="path54"
     style="fill:none;stroke:#2b9eb3;stroke-width:2.84527612;stroke-linecap:butt;stroke-linejoin:round;stroke-miterlimit:10;stroke-opacity:1;stroke-dasharray:none"
     d="m 35.715,319.465 6.015,0.078 6.016,0.449 6.012,0.086 6.015,0.094 6.016,0.48 6.016,0.11 6.015,0.5 6.016,0.129 6.012,0.523 6.015,0.148 6.016,0.547 6.016,0.172 6.015,0.578 6.012,0.192 6.016,0.609 6.015,0.215 6.016,0.641 6.015,0.238 6.016,0.664 6.012,0.258 6.015,0.691 6.016,0.27 6.016,0.711 6.015,0.722 6.012,0.289 6.016,0.735 6.015,0.293 6.016,0.738 6.015,0.293 6.012,0.742 6.016,0.289 6.015,0.739 6.016,0.734 6.016,0.273 6.015,0.723 6.012,0.258 6.016,0.707 6.015,0.703 6.016,0.23 6.015,0.68 6.012,0.211 6.016,0.664 6.015,0.652 6.016,0.184 6.016,0.629 6.015,0.621 6.012,0.152 6.016,0.598 6.015,0.59 6.016,0.574" /></g><g
   clip-path="url(#clipPath60)"
   id="g58"><path
     inkscape:connector-curvature="0"
     id="path64"
     style="fill:none;stroke:#0e5c28;stroke-width:2.84527612;stroke-linecap:butt;stroke-linejoin:round;stroke-miterlimit:10;stroke-opacity:1;stroke-dasharray:none"
     d="m 35.715,321.707 6.015,0.086 6.016,0.484 6.012,0.106 6.015,0.508 6.016,0.125 6.016,0.539 6.015,0.55 6.016,0.168 6.012,0.586 6.015,0.2 6.016,0.629 6.016,0.234 6.015,0.672 6.012,0.695 6.016,0.289 6.015,0.738 6.016,0.325 6.015,0.785 6.016,0.808 6.012,0.379 6.015,0.852 6.016,0.875 6.016,0.43 6.015,0.91 6.012,0.933 6.016,0.469 6.015,0.965 6.016,0.976 6.015,0.497 6.012,1 6.016,1.011 6.015,0.512 12.032,2.047 6.015,1.031 6.012,0.512 6.016,1.027 6.015,1.024 6.016,1.019 6.015,0.488 6.012,1.008 6.016,1 6.015,0.989 6.016,0.449 6.016,0.968 6.015,0.957 6.012,0.946 6.016,0.933 6.015,0.918 6.016,0.371" /></g><g
   clip-path="url(#clipPath70)"
   id="g68"><path
     inkscape:connector-curvature="0"
     id="path74"
     style="fill:none;stroke:#f9c500;stroke-width:2.84527612;stroke-linecap:butt;stroke-linejoin:round;stroke-miterlimit:10;stroke-opacity:1;stroke-dasharray:none"
     d="m 35.715,318.984 6.015,0.121 6.016,0.536 6.012,0.144 6.015,0.563 6.016,0.172 6.016,0.597 6.015,0.195 6.016,0.637 6.012,0.231 6.015,0.675 6.016,0.262 6.016,0.719 6.015,0.293 6.012,0.762 6.016,0.777 6.015,0.348 6.016,0.816 6.015,0.375 6.016,0.855 6.012,0.395 6.015,0.891 6.016,0.902 6.016,0.43 6.015,0.929 6.012,0.442 6.016,0.945 6.015,0.957 6.016,0.453 6.015,0.965 6.012,0.453 12.031,1.93 6.016,0.445 6.016,0.961 6.015,0.949 6.012,0.426 6.016,0.938 6.015,0.929 6.016,0.918 6.015,0.383 6.012,0.899 6.016,0.886 6.015,0.871 6.016,0.34 6.016,0.848 6.015,0.832 6.012,0.82 6.016,0.805 6.015,0.793 6.016,0.273" /></g><g
   clip-path="url(#clipPath80)"
   id="g78"><path
     inkscape:connector-curvature="0"
     id="path84"
     style="fill:none;stroke:#6c254f;stroke-width:2.84527612;stroke-linecap:butt;stroke-linejoin:round;stroke-miterlimit:10;stroke-opacity:1;stroke-dasharray:none"
     d="m 35.715,192.223 6.015,0.5 6.016,0.265 6.012,0.492 6.015,0.543 6.016,0.52 6.016,0.57 6.015,0.551 6.016,0.813 6.012,0.367 6.015,0.594 6.016,0.652 6.016,0.629 6.015,0.687 6.012,0.68 6.016,0.969 6.015,0.504 6.016,1.015 6.015,0.766 6.016,0.828 6.012,0.809 6.015,1.097 6.016,0.848 6.016,0.91 6.015,0.883 6.012,1.176 6.016,1.187 6.015,0.703 6.016,1.223 6.015,0.957 6.012,1.254 6.016,1.258 6.015,0.992 6.016,1.039 6.016,1.285 6.015,1.008 6.012,1.293 6.016,1.293 6.015,1.012 6.016,1.293 6.015,1.289 6.012,1 6.016,1.281 6.015,1.269 6.016,1.266 6.016,0.973 6.015,1.246 6.012,1.234 6.016,1.219 6.015,0.933 6.016,1.196" /></g><g
   clip-path="url(#clipPath90)"
   id="g88"><path
     inkscape:connector-curvature="0"
     id="path94"
     style="fill:none;stroke:#ef6638;stroke-width:2.84527612;stroke-linecap:butt;stroke-linejoin:round;stroke-miterlimit:10;stroke-opacity:1;stroke-dasharray:none"
     d="m 35.715,192.793 6.015,0.504 6.016,0.551 6.012,0.531 6.015,0.293 6.016,0.84 6.016,0.328 6.015,0.867 6.016,0.359 6.012,0.903 6.015,0.39 6.016,0.661 6.016,0.976 6.015,0.461 6.012,1.023 6.016,0.493 6.015,1.062 6.016,0.781 6.015,0.84 6.016,0.813 6.012,0.566 6.015,1.149 6.016,0.851 6.016,0.906 6.015,0.875 6.012,1.188 6.016,0.887 6.015,0.933 6.016,0.895 6.015,1.203 6.012,0.629 6.016,1.203 6.015,1.199 6.016,0.883 6.016,0.922 6.015,0.867 6.012,1.168 6.016,0.852 6.015,1.144 6.016,0.566 6.015,1.125 6.012,1.11 6.016,0.793 6.015,1.082 6.016,1.066 6.016,0.754 6.015,0.793 6.012,0.731 6.016,1.011 6.015,1 6.016,0.981" /></g><g
   clip-path="url(#clipPath100)"
   id="g98"><path
     inkscape:connector-curvature="0"
     id="path104"
     style="fill:none;stroke:#2b9eb3;stroke-width:2.84527612;stroke-linecap:butt;stroke-linejoin:round;stroke-miterlimit:10;stroke-opacity:1;stroke-dasharray:none"
     d="m 35.715,193.844 6.015,0.304 6.016,0.653 6.012,0.336 6.015,0.496 6.016,0.551 6.016,0.531 6.015,0.734 6.016,0.414 6.012,0.778 6.015,0.445 6.016,0.816 6.016,0.657 6.015,0.718 6.012,0.703 6.016,0.922 6.015,0.578 6.016,0.961 6.015,0.774 6.016,0.832 6.012,0.805 6.015,1.023 6.016,0.832 6.016,0.883 6.015,1.055 6.012,0.855 6.016,1.062 6.015,0.7 6.016,1.066 6.015,0.86 6.012,1.062 6.016,0.848 6.015,0.882 6.016,1.036 6.016,0.82 6.015,1.012 6.012,0.793 6.016,0.82 6.015,0.969 6.016,0.746 6.015,0.937 6.012,0.711 6.016,0.903 6.015,0.878 6.016,0.508 6.016,0.848 6.015,0.832 6.012,0.617 6.016,0.797 6.015,0.781 6.016,0.766" /></g><g
   clip-path="url(#clipPath110)"
   id="g108"><path
     inkscape:connector-curvature="0"
     id="path114"
     style="fill:none;stroke:#0e5c28;stroke-width:2.84527612;stroke-linecap:butt;stroke-linejoin:round;stroke-miterlimit:10;stroke-opacity:1;stroke-dasharray:none"
     d="m 35.715,198.988 6.015,0.524 6.016,0.574 6.012,0.566 6.015,0.77 6.016,0.461 6.016,0.824 6.015,0.848 6.016,0.558 6.012,0.934 6.015,0.773 6.016,0.84 6.016,0.836 6.015,1.07 6.012,1.102 6.016,0.934 6.015,1.007 6.016,1 6.015,1.243 6.016,1.273 6.012,1.098 6.015,1.168 6.016,1.371 6.016,1.183 6.015,1.43 6.012,1.457 6.016,1.258 6.015,1.5 6.016,1.515 6.015,1.309 6.012,1.547 6.016,1.559 6.015,1.332 6.016,1.57 12.031,3.133 6.012,1.328 6.016,1.555 6.015,1.542 6.016,1.532 6.015,1.281 6.012,1.5 6.016,1.484 6.015,1.461 6.016,1.203 6.016,1.418 6.015,1.399 6.012,1.371 6.016,1.344 6.015,1.507 6.016,1.067" /></g><g
   clip-path="url(#clipPath120)"
   id="g118"><path
     inkscape:connector-curvature="0"
     id="path124"
     style="fill:none;stroke:#f9c500;stroke-width:2.84527612;stroke-linecap:butt;stroke-linejoin:round;stroke-miterlimit:10;stroke-opacity:1;stroke-dasharray:none"
     d="m 35.715,196.211 6.015,0.406 6.016,0.832 6.012,0.449 6.015,0.879 6.016,0.684 6.016,0.738 6.015,0.75 6.016,1.008 6.012,0.613 6.015,1.067 6.016,0.859 6.016,0.926 6.015,0.914 6.012,1.172 6.016,1.199 6.015,0.793 6.016,1.25 6.015,1.035 6.016,1.297 6.012,0.871 6.015,1.336 6.016,1.348 6.016,1.121 6.015,1.375 6.012,1.14 6.016,1.192 6.015,1.394 6.016,1.153 6.015,1.394 6.012,1.149 6.016,1.386 6.015,1.375 6.016,1.125 6.016,1.356 6.015,1.34 6.012,1.086 6.016,1.304 6.015,1.285 6.016,1.266 6.015,1.016 6.012,1.226 6.016,1.2 6.015,1.183 6.016,0.934 6.016,1.136 6.015,1.118 6.012,1.089 6.016,1.075 6.015,1.05 6.016,0.817" /></g><g
   clip-path="url(#clipPath130)"
   id="g128"><path
     inkscape:connector-curvature="0"
     id="path134"
     style="fill:none;stroke:#6c254f;stroke-width:2.84527612;stroke-linecap:butt;stroke-linejoin:round;stroke-miterlimit:10;stroke-opacity:1;stroke-dasharray:none"
     d="m 35.715,43.102 6.015,0.464 6.016,0.485 6.012,0.387 6.015,0.523 6.016,0.422 6.016,0.566 6.015,0.469 6.016,0.488 6.012,0.641 6.015,0.543 6.016,0.695 6.016,0.598 6.015,0.754 6.012,0.66 6.016,0.695 6.015,0.86 6.016,0.765 6.015,0.801 6.016,0.977 6.012,0.878 6.015,0.918 6.016,0.957 6.016,1.137 6.015,1.039 6.012,1.082 6.016,1.117 6.015,1.305 6.016,1.199 6.015,1.239 6.012,1.277 6.016,1.316 6.015,1.352 6.016,1.527 6.016,1.418 6.015,1.453 6.012,1.481 6.016,1.512 6.015,1.535 6.016,1.562 6.015,1.582 6.012,1.606 6.016,1.621 6.015,1.637 6.016,1.648 6.016,1.66 6.015,1.664 6.012,1.668 6.016,1.668 6.015,1.672 6.016,1.664" /></g><g
   clip-path="url(#clipPath140)"
   id="g138"><path
     inkscape:connector-curvature="0"
     id="path144"
     style="fill:none;stroke:#ef6638;stroke-width:2.84527612;stroke-linecap:butt;stroke-linejoin:round;stroke-miterlimit:10;stroke-opacity:1;stroke-dasharray:none"
     d="m 35.715,44.012 6.015,0.379 6.016,0.519 6.012,0.422 6.015,0.559 6.016,0.461 6.016,0.609 6.015,0.508 6.016,0.656 6.012,0.563 6.015,0.71 6.016,0.618 6.016,0.644 6.015,0.809 6.012,0.707 6.016,0.871 6.015,0.773 6.016,0.805 6.015,0.977 6.016,0.871 6.012,1.039 6.015,0.941 6.016,0.969 6.016,1.137 6.015,1.031 6.012,1.058 6.016,1.086 6.015,1.25 6.016,1.137 6.015,1.16 6.012,1.313 6.016,1.199 6.015,1.219 6.016,1.234 6.016,1.375 6.015,1.262 6.012,1.269 6.016,1.282 6.015,1.289 6.016,1.414 6.015,1.301 6.012,1.304 6.016,1.305 6.015,1.308 12.032,2.625 6.015,1.411 6.012,1.304 6.016,1.301 6.015,1.293 6.016,1.289" /></g><g
   clip-path="url(#clipPath150)"
   id="g148"><path
     inkscape:connector-curvature="0"
     id="path154"
     style="fill:none;stroke:#2b9eb3;stroke-width:2.84527612;stroke-linecap:butt;stroke-linejoin:round;stroke-miterlimit:10;stroke-opacity:1;stroke-dasharray:none"
     d="m 35.715,40.602 6.015,0.457 6.016,0.324 6.012,0.496 6.015,0.359 6.016,0.535 6.016,0.403 6.015,0.418 6.016,0.605 6.012,0.469 6.015,0.656 6.016,0.52 6.016,0.543 6.015,0.746 6.012,0.601 6.016,0.633 6.015,0.84 6.016,0.695 6.015,0.723 6.016,0.941 6.012,0.789 6.015,0.817 6.016,0.851 6.016,1.071 6.015,0.906 6.012,0.941 6.016,0.965 6.015,1.184 6.016,1.019 6.015,1.036 6.012,1.058 6.016,1.078 6.015,1.293 6.016,1.11 6.016,1.125 6.015,1.132 6.012,1.145 6.016,1.348 6.015,1.16 6.016,1.164 6.015,1.168 6.012,1.172 12.031,2.351 6.016,1.352 12.031,2.344 6.012,1.164 6.016,1.164 6.015,1.16 6.016,1.152" /></g><g
   clip-path="url(#clipPath160)"
   id="g158"><path
     inkscape:connector-curvature="0"
     id="path164"
     style="fill:none;stroke:#0e5c28;stroke-width:2.84527612;stroke-linecap:butt;stroke-linejoin:round;stroke-miterlimit:10;stroke-opacity:1;stroke-dasharray:none"
     d="m 35.715,46.633 6.015,0.469 6.016,0.644 6.012,0.52 6.015,0.55 6.016,0.739 6.016,0.613 6.015,0.644 6.016,0.848 6.012,0.727 6.015,0.765 6.016,0.981 6.016,0.855 6.015,0.907 6.012,0.953 6.016,1.004 6.015,1.23 6.016,1.109 6.015,1.164 6.016,1.215 6.012,1.274 6.015,1.508 6.016,1.382 6.016,1.438 6.015,1.492 6.012,1.543 6.016,1.598 6.015,1.644 6.016,1.692 6.015,1.738 6.012,1.781 6.016,1.824 6.015,1.86 6.016,1.894 6.016,1.922 6.015,1.949 6.012,1.973 6.016,1.992 6.015,2.004 6.016,2.016 6.015,2.019 6.012,2.02 6.016,2.019 6.015,2.008 6.016,2 6.016,1.981 6.015,1.964 6.012,1.942 6.016,1.914 6.015,1.777 6.016,1.86" /></g><g
   clip-path="url(#clipPath170)"
   id="g168"><path
     inkscape:connector-curvature="0"
     id="path174"
     style="fill:none;stroke:#f9c500;stroke-width:2.84527612;stroke-linecap:butt;stroke-linejoin:round;stroke-miterlimit:10;stroke-opacity:1;stroke-dasharray:none"
     d="m 35.715,45.418 6.015,0.594 6.016,0.48 6.012,0.653 6.015,0.543 6.016,0.57 6.016,0.758 6.015,0.644 6.016,0.684 6.012,0.875 6.015,0.761 6.016,0.805 6.016,1.004 6.015,0.891 6.012,0.933 6.016,0.977 6.015,1.195 6.016,1.07 6.015,1.114 6.016,1.16 6.012,1.379 6.015,1.246 6.016,1.293 6.016,1.328 6.015,1.367 6.012,1.403 6.016,1.617 6.015,1.468 6.016,1.5 6.015,1.532 6.012,1.55 6.016,1.575 6.015,1.593 6.016,1.61 6.016,1.625 6.015,1.637 6.012,1.644 12.031,3.305 6.016,1.656 6.015,1.652 6.012,1.645 6.016,1.644 6.015,1.629 6.016,1.621 6.016,1.61 6.015,1.59 6.012,1.574 6.016,1.551 6.015,1.531 6.016,1.508" /></g><g
   clip-path="url(#clipPath180)"
   id="g178"><path
     inkscape:connector-curvature="0"
     id="path184"
     style="fill:none;stroke:#6c254f;stroke-width:2.84527612;stroke-linecap:butt;stroke-linejoin:round;stroke-miterlimit:10;stroke-opacity:1;stroke-dasharray:none"
     d="m 350.633,316.809 6.015,0.058 6.016,0.488 6.016,0.063 6.011,0.504 6.016,0.078 6.016,0.52 6.015,0.089 6.016,0.098 6.012,0.551 6.015,0.113 6.016,0.574 6.015,0.129 6.016,0.602 6.016,0.613 6.011,0.168 6.016,0.645 6.016,0.195 6.015,0.68 6.016,0.699 6.012,0.238 6.015,0.738 6.016,0.262 6.016,0.774 6.015,0.792 6.012,0.817 6.016,0.324 6.015,0.852 6.016,0.871 6.015,0.894 6.016,0.91 6.012,0.934 6.015,0.418 6.016,0.969 6.016,0.988 6.015,1.008 6.012,1.027 6.016,1.043 6.015,1.621 6.016,1.09 6.015,1.109 6.012,1.129 6.016,1.707 6.015,1.176 6.016,1.195 6.016,1.782 6.015,1.242 6.012,1.836 6.016,1.863 6.015,1.891 6.016,1.918" /></g><g
   clip-path="url(#clipPath190)"
   id="g188"><path
     inkscape:connector-curvature="0"
     id="path194"
     style="fill:none;stroke:#ef6638;stroke-width:2.84527612;stroke-linecap:butt;stroke-linejoin:round;stroke-miterlimit:10;stroke-opacity:1;stroke-dasharray:none"
     d="m 350.633,317.215 6.015,0.058 6.016,0.063 6.016,0.516 6.011,0.07 6.016,0.535 6.016,0.086 6.015,0.551 6.016,0.105 6.012,0.574 6.015,0.122 6.016,0.128 6.015,0.618 6.016,0.152 6.016,0.648 6.011,0.664 6.016,0.192 6.016,0.703 6.015,0.215 6.016,0.738 6.012,0.242 6.015,0.774 6.016,0.269 6.016,0.809 6.015,0.828 6.012,0.309 6.016,0.863 6.015,0.883 6.016,0.347 6.015,0.914 6.016,0.934 6.012,0.949 6.015,0.406 6.016,0.981 6.016,1.004 6.015,1.019 6.012,1.039 6.016,1.059 6.015,1.074 6.016,1.102 6.015,1.117 6.012,1.145 6.016,1.164 6.015,1.191 6.016,1.219 6.016,1.836 6.015,1.281 6.012,1.309 6.016,1.937 6.015,1.379 6.016,2.012" /></g><g
   clip-path="url(#clipPath200)"
   id="g198"><path
     inkscape:connector-curvature="0"
     id="path204"
     style="fill:none;stroke:#2b9eb3;stroke-width:2.84527612;stroke-linecap:butt;stroke-linejoin:round;stroke-miterlimit:10;stroke-opacity:1;stroke-dasharray:none"
     d="m 350.633,319.008 6.015,0.449 6.016,0.086 6.016,0.465 6.011,0.105 6.016,0.485 6.016,0.121 6.015,0.511 6.016,0.141 6.012,0.539 6.015,0.164 6.016,0.571 6.015,0.191 6.016,0.602 6.016,0.621 6.011,0.234 6.016,0.66 6.016,0.266 6.015,0.695 6.016,0.289 6.012,0.735 6.015,0.75 6.016,0.332 6.016,0.785 6.015,0.8 6.012,0.372 6.016,0.828 6.015,0.843 6.016,0.403 6.015,0.871 6.016,0.883 6.012,0.898 6.015,0.906 6.016,0.45 6.016,0.929 6.015,0.942 6.012,0.953 6.016,0.965 6.015,0.98 6.016,0.988 6.015,1.008 6.012,1.02 6.016,1.039 6.015,1.055 6.016,1.562 6.016,1.098 6.015,1.121 6.012,1.629 6.016,1.172 6.015,1.691 6.016,1.234" /></g><g
   clip-path="url(#clipPath210)"
   id="g208"><path
     inkscape:connector-curvature="0"
     id="path214"
     style="fill:none;stroke:#0e5c28;stroke-width:2.84527612;stroke-linecap:butt;stroke-linejoin:round;stroke-miterlimit:10;stroke-opacity:1;stroke-dasharray:none"
     d="m 350.633,321.656 6.015,0.09 6.016,0.484 6.016,0.11 6.011,0.512 6.016,0.132 6.016,0.543 6.015,0.157 6.016,0.578 6.012,0.597 6.015,0.211 6.016,0.641 6.015,0.668 6.016,0.269 6.016,0.715 6.011,0.742 6.016,0.333 6.016,0.792 6.015,0.821 6.016,0.398 6.012,0.875 6.015,0.899 6.016,0.929 6.016,0.489 6.015,0.984 6.012,1.008 6.016,1.035 6.015,1.059 6.016,1.085 6.015,0.614 6.016,1.129 6.012,1.148 6.015,1.176 6.016,1.195 6.016,1.215 6.015,1.234 6.012,1.254 6.016,1.27 6.015,1.289 6.016,1.852 6.015,1.328 6.012,1.347 6.016,1.367 6.015,1.934 6.016,1.41 6.016,1.981 6.015,1.453 6.012,2.035 6.016,1.504 6.015,2.09 6.016,2.117" /></g><g
   clip-path="url(#clipPath220)"
   id="g218"><path
     inkscape:connector-curvature="0"
     id="path224"
     style="fill:none;stroke:#f9c500;stroke-width:2.84527612;stroke-linecap:butt;stroke-linejoin:round;stroke-miterlimit:10;stroke-opacity:1;stroke-dasharray:none"
     d="m 350.633,318.93 6.015,0.129 6.016,0.539 6.016,0.148 6.011,0.57 6.016,0.176 6.016,0.602 6.015,0.203 6.016,0.644 6.012,0.239 6.015,0.687 6.016,0.27 6.015,0.73 6.016,0.754 6.016,0.332 6.011,0.797 6.016,0.363 6.016,0.844 6.015,0.867 6.016,0.418 6.012,0.91 6.015,0.93 6.016,0.469 6.016,0.972 6.015,0.989 6.012,0.511 6.016,1.024 6.015,1.039 6.016,0.547 6.015,1.07 6.016,1.082 6.012,1.098 6.015,1.109 6.016,0.598 6.016,1.133 6.015,1.144 6.012,1.156 6.016,1.168 6.015,1.176 6.016,1.192 6.015,1.203 6.012,1.215 6.016,1.23 6.015,1.242 6.016,1.801 6.016,1.281 6.015,1.301 6.012,1.324 6.016,1.879 6.015,1.375 6.016,1.934" /></g><g
   clip-path="url(#clipPath230)"
   id="g228"><path
     inkscape:connector-curvature="0"
     id="path234"
     style="fill:none;stroke:#6c254f;stroke-width:2.84527612;stroke-linecap:butt;stroke-linejoin:round;stroke-miterlimit:10;stroke-opacity:1;stroke-dasharray:none"
     d="m 350.633,191.812 6.015,0.473 6.016,0.527 6.016,0.512 6.011,0.563 6.016,0.539 6.016,0.594 6.015,0.574 6.016,0.371 6.012,0.871 6.015,0.629 6.016,0.691 6.015,0.676 6.016,0.957 6.016,0.781 6.011,0.774 6.016,1.062 6.016,0.828 6.015,0.895 6.016,1.156 6.012,0.918 6.015,1.219 6.016,0.98 6.016,1.286 6.015,1.32 6.012,1.355 6.016,1.117 6.015,1.426 6.016,1.461 6.015,1.496 6.016,1.535 6.012,1.571 6.015,1.324 6.016,1.883 6.016,1.683 6.015,1.719 6.012,1.996 6.016,1.801 6.015,2.355 6.016,1.883 6.015,2.157 6.012,2.203 12.031,4.586 6.016,2.343 6.016,2.672 6.015,2.442 6.012,2.781 6.016,3.062 6.015,2.895 6.016,3.18" /></g><g
   clip-path="url(#clipPath240)"
   id="g238"><path
     inkscape:connector-curvature="0"
     id="path244"
     style="fill:none;stroke:#ef6638;stroke-width:2.84527612;stroke-linecap:butt;stroke-linejoin:round;stroke-miterlimit:10;stroke-opacity:1;stroke-dasharray:none"
     d="m 350.633,192.641 6.015,0.269 6.016,0.524 6.016,0.574 6.011,0.558 6.016,0.606 6.016,0.59 6.015,0.89 6.016,0.383 6.012,0.93 6.015,0.418 6.016,0.695 6.015,1.02 6.016,0.5 6.016,1.078 6.011,1.101 6.016,0.578 6.016,1.157 6.015,0.883 6.016,1.21 6.012,0.676 6.015,1.266 6.016,0.988 6.016,1.324 6.015,1.344 6.012,1.07 6.016,1.137 6.015,1.43 6.016,1.144 6.015,1.481 6.016,1.508 6.012,1.531 6.015,1.25 6.016,1.586 6.016,1.883 6.015,1.644 6.012,1.676 6.016,1.707 6.015,2 6.016,1.777 6.015,1.813 6.012,2.113 6.016,1.902 6.015,2.2 6.016,2.25 6.016,2.347 6.015,2.364 6.012,2.418 6.016,2.777 6.015,2.559 6.016,2.921" /></g><g
   clip-path="url(#clipPath250)"
   id="g248"><path
     inkscape:connector-curvature="0"
     id="path254"
     style="fill:none;stroke:#2b9eb3;stroke-width:2.84527612;stroke-linecap:butt;stroke-linejoin:round;stroke-miterlimit:10;stroke-opacity:1;stroke-dasharray:none"
     d="m 350.633,193.266 6.015,0.648 6.016,0.336 6.016,0.691 6.011,0.524 6.016,0.574 6.016,0.563 6.015,0.613 6.016,0.601 6.012,0.817 6.015,0.488 6.016,0.867 6.015,0.711 6.016,0.938 6.016,0.808 6.011,0.797 6.016,1.024 6.016,0.847 6.015,0.914 6.016,0.899 6.012,1.133 6.015,1.156 6.016,0.976 6.016,1.207 6.015,1.231 6.012,0.879 6.016,1.281 6.015,1.297 6.016,1.109 6.015,1.344 6.016,1.359 6.012,1.383 6.015,1.403 6.016,1.378 6.016,1.442 6.015,1.461 6.012,1.484 6.016,1.508 6.015,1.703 6.016,1.559 6.015,1.754 6.012,1.621 6.016,1.82 6.015,1.691 6.016,2.11 6.016,1.777 6.015,1.988 6.012,2.254 6.016,2.098 6.015,2.367 6.016,2.223" /></g><g
   clip-path="url(#clipPath260)"
   id="g258"><path
     inkscape:connector-curvature="0"
     id="path264"
     style="fill:none;stroke:#0e5c28;stroke-width:2.84527612;stroke-linecap:butt;stroke-linejoin:round;stroke-miterlimit:10;stroke-opacity:1;stroke-dasharray:none"
     d="m 350.633,198.777 6.015,0.391 6.016,0.742 6.016,0.582 6.011,0.641 6.016,0.633 6.016,0.843 6.015,0.532 6.016,0.929 6.012,0.973 6.015,0.809 6.016,1.043 6.015,0.921 6.016,0.918 6.016,1.164 6.011,1.204 6.016,1.043 6.016,1.289 6.015,1.332 6.016,1.168 6.012,1.246 6.015,1.468 6.016,1.512 6.016,1.336 6.015,1.781 6.012,1.645 6.016,1.683 6.015,1.731 6.016,1.769 6.015,1.583 6.016,1.847 6.012,2.074 6.015,1.926 6.016,1.961 6.016,2.192 6.015,2.031 6.012,2.066 6.016,2.301 6.015,2.137 6.016,2.613 6.015,2.215 6.012,2.445 6.016,2.492 6.015,2.774 6.016,2.578 6.016,2.672 6.015,2.679 6.012,3.172 6.016,2.797 6.015,3.102 6.016,3.172" /></g><g
   clip-path="url(#clipPath270)"
   id="g268"><path
     inkscape:connector-curvature="0"
     id="path274"
     style="fill:none;stroke:#f9c500;stroke-width:2.84527612;stroke-linecap:butt;stroke-linejoin:round;stroke-miterlimit:10;stroke-opacity:1;stroke-dasharray:none"
     d="m 350.633,195.898 6.015,0.602 6.016,0.84 6.016,0.461 6.011,0.89 6.016,0.504 6.016,0.946 6.015,0.765 6.016,1.028 6.012,0.636 6.015,1.09 6.016,0.887 6.015,0.953 6.016,1.188 6.016,0.98 6.011,1.246 6.016,1.039 6.016,1.113 6.015,1.34 6.016,1.129 6.012,1.403 6.015,1.425 6.016,1.215 6.016,1.481 6.015,1.507 6.012,1.289 6.016,1.551 6.015,1.574 6.016,1.352 6.015,1.613 6.016,1.633 6.012,1.649 6.015,1.664 6.016,1.433 6.016,1.895 6.015,1.715 6.012,1.726 6.016,1.742 6.015,1.953 6.016,1.778 6.015,1.797 6.012,2.011 6.016,1.844 6.015,2.055 6.016,2.316 6.016,1.93 6.015,2.148 6.012,2.184 6.016,2.453 6.015,2.27 6.016,2.543" /></g><g
   clip-path="url(#clipPath280)"
   id="g278"><path
     inkscape:connector-curvature="0"
     id="path284"
     style="fill:none;stroke:#6c254f;stroke-width:2.84527612;stroke-linecap:butt;stroke-linejoin:round;stroke-miterlimit:10;stroke-opacity:1;stroke-dasharray:none"
     d="m 350.633,42.723 6.015,0.382 6.016,0.52 6.016,0.426 6.011,0.57 6.016,0.473 6.016,0.625 6.015,0.527 6.016,0.688 6.012,0.593 6.015,0.629 6.016,0.793 6.015,0.711 6.016,0.75 6.016,0.926 6.011,0.848 6.016,0.898 6.016,0.957 6.015,1.145 6.016,1.078 6.012,1.14 6.015,1.207 6.016,1.282 6.016,1.351 6.015,1.434 6.012,1.515 6.016,1.598 6.015,1.684 6.016,1.777 6.015,1.871 6.016,1.965 6.012,2.066 6.015,2.168 6.016,2.153 6.016,2.382 6.015,2.493 6.012,2.496 6.016,2.715 6.015,2.726 6.016,2.938 6.015,2.965 6.012,3.078 6.016,3.254 6.015,3.285 6.016,3.383 6.016,3.48 6.015,3.559 6.012,3.632 6.016,3.692 6.015,3.758 6.016,3.82" /></g><g
   clip-path="url(#clipPath290)"
   id="g288"><path
     inkscape:connector-curvature="0"
     id="path294"
     style="fill:none;stroke:#ef6638;stroke-width:2.84527612;stroke-linecap:butt;stroke-linejoin:round;stroke-miterlimit:10;stroke-opacity:1;stroke-dasharray:none"
     d="m 350.633,43.574 6.015,0.524 6.016,0.433 6.016,0.574 6.011,0.481 6.016,0.629 6.016,0.535 6.015,0.562 6.016,0.723 6.012,0.633 6.015,0.793 6.016,0.711 6.015,0.75 6.016,0.922 6.016,0.84 6.011,0.886 6.016,1.071 6.016,0.992 6.015,1.047 6.016,1.105 6.012,1.297 6.015,1.227 6.016,1.289 6.016,1.355 6.015,1.426 6.012,1.492 6.016,1.695 6.015,1.637 6.016,1.715 6.015,1.793 6.016,1.875 6.012,1.949 6.015,2.039 6.016,2.121 6.016,2.102 6.015,2.305 6.012,2.398 6.016,2.484 6.015,2.493 6.016,2.675 6.015,2.77 6.012,2.793 6.016,2.961 6.015,2.996 6.016,3.098 6.016,3.226 6.015,3.277 6.012,3.372 6.016,3.449 6.015,3.535 6.016,3.605" /></g><g
   clip-path="url(#clipPath300)"
   id="g298"><path
     inkscape:connector-curvature="0"
     id="path304"
     style="fill:none;stroke:#2b9eb3;stroke-width:2.84527612;stroke-linecap:butt;stroke-linejoin:round;stroke-miterlimit:10;stroke-opacity:1;stroke-dasharray:none"
     d="m 350.633,40.32 6.015,0.336 6.016,0.508 6.016,0.375 6.011,0.402 6.016,0.579 6.016,0.453 6.015,0.636 6.016,0.508 6.012,0.539 6.015,0.735 6.016,0.609 6.015,0.645 6.016,0.683 6.016,0.902 6.011,0.774 6.016,0.816 6.016,0.868 6.015,1.097 6.016,0.973 6.012,1.031 6.015,1.082 6.016,1.149 6.016,1.207 6.015,1.269 6.012,1.531 6.016,1.407 6.015,1.48 6.016,1.551 6.015,1.621 6.016,1.699 6.012,1.777 6.015,1.856 6.016,1.758 6.016,2.023 6.015,2.11 6.012,2.195 6.016,2.285 6.015,2.219 6.016,2.476 6.015,2.422 6.012,2.664 6.016,2.625 6.015,2.856 6.016,2.824 6.016,3.027 6.015,3.016 6.012,3.105 6.016,3.188 6.015,3.262 6.016,3.328" /></g><g
   clip-path="url(#clipPath310)"
   id="g308"><path
     inkscape:connector-curvature="0"
     id="path314"
     style="fill:none;stroke:#0e5c28;stroke-width:2.84527612;stroke-linecap:butt;stroke-linejoin:round;stroke-miterlimit:10;stroke-opacity:1;stroke-dasharray:none"
     d="m 350.633,46.195 6.015,0.649 6.016,0.527 6.016,0.555 6.011,0.742 6.016,0.629 6.016,0.66 6.015,0.867 6.016,0.75 6.012,0.797 6.015,0.848 6.016,0.898 6.015,1.129 6.016,1.02 6.016,1.078 6.011,1.148 6.016,1.215 6.016,1.285 6.015,1.363 6.016,1.438 6.012,1.695 6.015,1.602 6.016,1.687 6.016,1.778 6.015,1.683 6.012,1.957 6.016,2.051 6.015,2.145 6.016,2.242 6.015,2.34 6.016,2.437 6.012,2.375 6.015,2.637 6.016,2.734 6.016,2.684 6.015,2.933 6.012,3.028 6.016,2.984 6.015,3.207 6.016,3.176 6.015,3.375 6.012,3.352 6.016,3.437 6.015,3.516 6.016,3.582 6.016,3.695 6.015,3.691 6.012,3.711 6.016,3.793 6.015,3.836 6.016,3.875" /></g><g
   clip-path="url(#clipPath320)"
   id="g318"><path
     inkscape:connector-curvature="0"
     id="path324"
     style="fill:none;stroke:#f9c500;stroke-width:2.84527612;stroke-linecap:butt;stroke-linejoin:round;stroke-miterlimit:10;stroke-opacity:1;stroke-dasharray:none"
     d="m 350.633,45.211 6.015,0.477 6.016,0.503 6.016,0.684 6.011,0.574 6.016,0.754 6.016,0.652 6.015,0.688 6.016,0.734 6.012,0.934 6.015,0.824 6.016,0.875 6.015,1.09 6.016,0.98 6.016,1.04 6.011,1.089 6.016,1.157 6.016,1.382 6.015,1.278 6.016,1.34 6.012,1.406 6.015,1.469 6.016,1.539 6.016,1.605 6.015,1.668 6.012,1.742 6.016,1.809 6.015,1.875 6.016,1.945 6.015,2.016 6.016,2.082 6.012,2.152 6.015,2.219 6.016,2.289 6.016,2.207 6.015,2.426 6.012,2.484 6.016,2.551 6.015,2.488 6.016,2.672 6.015,2.731 6.012,2.679 6.016,2.832 6.015,2.793 6.016,2.844 6.016,2.965 6.015,2.937 6.012,2.985 6.016,3.023 6.015,3.059 6.016,3.101" /></g><path
   inkscape:connector-curvature="0"
   id="path328"
   style="fill:none;stroke:#000000;stroke-width:1.42263806;stroke-linecap:butt;stroke-linejoin:round;stroke-miterlimit:10;stroke-opacity:1;stroke-dasharray:none"
   d="m 35.715,306.699 0,121.785" /><text
   id="text330"
   transform="scale(1,-1)"
   x="20.445312"
   y="-321.19531"><tspan
     id="tspan332"
     sodipodi:role="line"
     y="-321.19531"
     x="20.445312 25.616112"
     style="font-size:9.30000019px;font-variant:normal;writing-mode:lr-tb;fill:#000000;fill-opacity:1;fill-rule:nonzero;stroke:none;font-family:Nimbus Sans L;-inkscape-font-specification:NimbusSanL-Regu">50</tspan><tspan
     id="tspan334"
     sodipodi:role="line"
     y="-354.12891"
     x="20.445312 25.616112"
     style="font-size:9.30000019px;font-variant:normal;writing-mode:lr-tb;fill:#000000;fill-opacity:1;fill-rule:nonzero;stroke:none;font-family:Nimbus Sans L;-inkscape-font-specification:NimbusSanL-Regu">60</tspan><tspan
     id="tspan336"
     sodipodi:role="line"
     y="-387.06641"
     x="20.445312 25.616112"
     style="font-size:9.30000019px;font-variant:normal;writing-mode:lr-tb;fill:#000000;fill-opacity:1;fill-rule:nonzero;stroke:none;font-family:Nimbus Sans L;-inkscape-font-specification:NimbusSanL-Regu">70</tspan><tspan
     id="tspan338"
     sodipodi:role="line"
     y="-420.00391"
     x="20.445312 25.616112"
     style="font-size:9.30000019px;font-variant:normal;writing-mode:lr-tb;fill:#000000;fill-opacity:1;fill-rule:nonzero;stroke:none;font-family:Nimbus Sans L;-inkscape-font-specification:NimbusSanL-Regu">80</tspan></text>




<path
   inkscape:connector-curvature="0"
   id="path340"
   style="fill:none;stroke:#000000;stroke-width:1.42263806;stroke-linecap:butt;stroke-linejoin:round;stroke-miterlimit:10;stroke-opacity:1;stroke-dasharray:none"
   d="m 32.977,324.586 2.738,0" /><path
   inkscape:connector-curvature="0"
   id="path342"
   style="fill:none;stroke:#000000;stroke-width:1.42263806;stroke-linecap:butt;stroke-linejoin:round;stroke-miterlimit:10;stroke-opacity:1;stroke-dasharray:none"
   d="m 32.977,357.52 2.738,0" /><path
   inkscape:connector-curvature="0"
   id="path344"
   style="fill:none;stroke:#000000;stroke-width:1.42263806;stroke-linecap:butt;stroke-linejoin:round;stroke-miterlimit:10;stroke-opacity:1;stroke-dasharray:none"
   d="m 32.977,390.457 2.738,0" /><path
   inkscape:connector-curvature="0"
   id="path346"
   style="fill:none;stroke:#000000;stroke-width:1.42263806;stroke-linecap:butt;stroke-linejoin:round;stroke-miterlimit:10;stroke-opacity:1;stroke-dasharray:none"
   d="m 32.977,423.395 2.738,0" /><path
   inkscape:connector-curvature="0"
   id="path348"
   style="fill:none;stroke:#000000;stroke-width:1.42263806;stroke-linecap:butt;stroke-linejoin:round;stroke-miterlimit:10;stroke-opacity:1;stroke-dasharray:none"
   d="m 35.715,170.742 0,121.785" /><text
   id="text350"
   transform="scale(1,-1)"
   x="20.445312"
   y="-185.23438"><tspan
     id="tspan352"
     sodipodi:role="line"
     y="-185.23438"
     x="20.445312 25.616112"
     style="font-size:9.30000019px;font-variant:normal;writing-mode:lr-tb;fill:#000000;fill-opacity:1;fill-rule:nonzero;stroke:none;font-family:Nimbus Sans L;-inkscape-font-specification:NimbusSanL-Regu">50</tspan><tspan
     id="tspan354"
     sodipodi:role="line"
     y="-218.17188"
     x="20.445312 25.616112"
     style="font-size:9.30000019px;font-variant:normal;writing-mode:lr-tb;fill:#000000;fill-opacity:1;fill-rule:nonzero;stroke:none;font-family:Nimbus Sans L;-inkscape-font-specification:NimbusSanL-Regu">60</tspan><tspan
     id="tspan356"
     sodipodi:role="line"
     y="-251.10938"
     x="20.445312 25.616112"
     style="font-size:9.30000019px;font-variant:normal;writing-mode:lr-tb;fill:#000000;fill-opacity:1;fill-rule:nonzero;stroke:none;font-family:Nimbus Sans L;-inkscape-font-specification:NimbusSanL-Regu">70</tspan><tspan
     id="tspan358"
     sodipodi:role="line"
     y="-284.04688"
     x="20.445312 25.616112"
     style="font-size:9.30000019px;font-variant:normal;writing-mode:lr-tb;fill:#000000;fill-opacity:1;fill-rule:nonzero;stroke:none;font-family:Nimbus Sans L;-inkscape-font-specification:NimbusSanL-Regu">80</tspan></text>




<path
   inkscape:connector-curvature="0"
   id="path360"
   style="fill:none;stroke:#000000;stroke-width:1.42263806;stroke-linecap:butt;stroke-linejoin:round;stroke-miterlimit:10;stroke-opacity:1;stroke-dasharray:none"
   d="m 32.977,188.625 2.738,0" /><path
   inkscape:connector-curvature="0"
   id="path362"
   style="fill:none;stroke:#000000;stroke-width:1.42263806;stroke-linecap:butt;stroke-linejoin:round;stroke-miterlimit:10;stroke-opacity:1;stroke-dasharray:none"
   d="m 32.977,221.562 2.738,0" /><path
   inkscape:connector-curvature="0"
   id="path364"
   style="fill:none;stroke:#000000;stroke-width:1.42263806;stroke-linecap:butt;stroke-linejoin:round;stroke-miterlimit:10;stroke-opacity:1;stroke-dasharray:none"
   d="m 32.977,254.5 2.738,0" /><path
   inkscape:connector-curvature="0"
   id="path366"
   style="fill:none;stroke:#000000;stroke-width:1.42263806;stroke-linecap:butt;stroke-linejoin:round;stroke-miterlimit:10;stroke-opacity:1;stroke-dasharray:none"
   d="m 32.977,287.438 2.738,0" /><path
   inkscape:connector-curvature="0"
   id="path368"
   style="fill:none;stroke:#000000;stroke-width:1.42263806;stroke-linecap:butt;stroke-linejoin:round;stroke-miterlimit:10;stroke-opacity:1;stroke-dasharray:none"
   d="m 35.715,34.781 0,121.785" /><text
   id="text370"
   transform="scale(1,-1)"
   x="20.445312"
   y="-49.277344"><tspan
     id="tspan372"
     sodipodi:role="line"
     y="-49.277344"
     x="20.445312 25.616112"
     style="font-size:9.30000019px;font-variant:normal;writing-mode:lr-tb;fill:#000000;fill-opacity:1;fill-rule:nonzero;stroke:none;font-family:Nimbus Sans L;-inkscape-font-specification:NimbusSanL-Regu">50</tspan><tspan
     id="tspan374"
     sodipodi:role="line"
     y="-82.214851"
     x="20.445312 25.616112"
     style="font-size:9.30000019px;font-variant:normal;writing-mode:lr-tb;fill:#000000;fill-opacity:1;fill-rule:nonzero;stroke:none;font-family:Nimbus Sans L;-inkscape-font-specification:NimbusSanL-Regu">60</tspan><tspan
     id="tspan376"
     sodipodi:role="line"
     y="-115.15235"
     x="20.445312 25.616112"
     style="font-size:9.30000019px;font-variant:normal;writing-mode:lr-tb;fill:#000000;fill-opacity:1;fill-rule:nonzero;stroke:none;font-family:Nimbus Sans L;-inkscape-font-specification:NimbusSanL-Regu">70</tspan><tspan
     id="tspan378"
     sodipodi:role="line"
     y="-148.08595"
     x="20.445312 25.616112"
     style="font-size:9.30000019px;font-variant:normal;writing-mode:lr-tb;fill:#000000;fill-opacity:1;fill-rule:nonzero;stroke:none;font-family:Nimbus Sans L;-inkscape-font-specification:NimbusSanL-Regu">80</tspan></text>




<path
   inkscape:connector-curvature="0"
   id="path380"
   style="fill:none;stroke:#000000;stroke-width:1.42263806;stroke-linecap:butt;stroke-linejoin:round;stroke-miterlimit:10;stroke-opacity:1;stroke-dasharray:none"
   d="m 32.977,52.668 2.738,0" /><path
   inkscape:connector-curvature="0"
   id="path382"
   style="fill:none;stroke:#000000;stroke-width:1.42263806;stroke-linecap:butt;stroke-linejoin:round;stroke-miterlimit:10;stroke-opacity:1;stroke-dasharray:none"
   d="m 32.977,85.605 2.738,0" /><path
   inkscape:connector-curvature="0"
   id="path384"
   style="fill:none;stroke:#000000;stroke-width:1.42263806;stroke-linecap:butt;stroke-linejoin:round;stroke-miterlimit:10;stroke-opacity:1;stroke-dasharray:none"
   d="m 32.977,118.543 2.738,0" /><path
   inkscape:connector-curvature="0"
   id="path386"
   style="fill:none;stroke:#000000;stroke-width:1.42263806;stroke-linecap:butt;stroke-linejoin:round;stroke-miterlimit:10;stroke-opacity:1;stroke-dasharray:none"
   d="m 32.977,151.477 2.738,0" /><text
   id="text388"
   transform="scale(1,-1)"
   x="662.54688"
   y="-357.8031"><tspan
     id="tspan390"
     sodipodi:role="line"
     y="-357.8031"
     x="662.54688 668.22919 673.9115 681.14685 684.24377 690.95837 698.19379"
     style="font-size:9.30000019px;font-variant:normal;font-weight:bold;writing-mode:lr-tb;fill:#1a1a1a;fill-opacity:1;fill-rule:nonzero;stroke:none;font-family:Nimbus Sans L;-inkscape-font-specification:NimbusSanL-Bold">Low-NOx</tspan><tspan
     id="tspan392"
     sodipodi:role="line"
     y="-221.84216"
     x="656.85938 664.60626 669.7771 674.94788 677.53326 685.80096 690.9718 693.55719 696.65405 703.88947"
     style="font-size:9.30000019px;font-variant:normal;font-weight:bold;writing-mode:lr-tb;fill:#1a1a1a;fill-opacity:1;fill-rule:nonzero;stroke:none;font-family:Nimbus Sans L;-inkscape-font-specification:NimbusSanL-Bold">Maximal-O3</tspan><tspan
     id="tspan394"
     sodipodi:role="line"
     y="-85.885155"
     x="661.51562 668.23022 670.81561 676.49792 682.18024 685.2771 691.9917 699.22711"
     style="font-size:9.30000019px;font-variant:normal;font-weight:bold;writing-mode:lr-tb;fill:#1a1a1a;fill-opacity:1;fill-rule:nonzero;stroke:none;font-family:Nimbus Sans L;-inkscape-font-specification:NimbusSanL-Bold">High-NOx</tspan></text>




<path
   inkscape:connector-curvature="0"
   id="path396"
   style="fill:none;stroke:#000000;stroke-width:1.42263806;stroke-linecap:butt;stroke-linejoin:round;stroke-miterlimit:10;stroke-opacity:1;stroke-dasharray:none"
   d="m 35.715,34.781 300.746,0" /><path
   inkscape:connector-curvature="0"
   id="path398"
   style="fill:none;stroke:#000000;stroke-width:1.42263806;stroke-linecap:butt;stroke-linejoin:round;stroke-miterlimit:10;stroke-opacity:1;stroke-dasharray:none"
   d="m 35.715,32.043 0,2.738" /><path
   inkscape:connector-curvature="0"
   id="path400"
   style="fill:none;stroke:#000000;stroke-width:1.42263806;stroke-linecap:butt;stroke-linejoin:round;stroke-miterlimit:10;stroke-opacity:1;stroke-dasharray:none"
   d="m 95.863,32.043 0,2.738" /><path
   inkscape:connector-curvature="0"
   id="path402"
   style="fill:none;stroke:#000000;stroke-width:1.42263806;stroke-linecap:butt;stroke-linejoin:round;stroke-miterlimit:10;stroke-opacity:1;stroke-dasharray:none"
   d="m 156.012,32.043 0,2.738" /><path
   inkscape:connector-curvature="0"
   id="path404"
   style="fill:none;stroke:#000000;stroke-width:1.42263806;stroke-linecap:butt;stroke-linejoin:round;stroke-miterlimit:10;stroke-opacity:1;stroke-dasharray:none"
   d="m 216.16,32.043 0,2.738" /><path
   inkscape:connector-curvature="0"
   id="path406"
   style="fill:none;stroke:#000000;stroke-width:1.42263806;stroke-linecap:butt;stroke-linejoin:round;stroke-miterlimit:10;stroke-opacity:1;stroke-dasharray:none"
   d="m 276.312,32.043 0,2.738" /><path
   inkscape:connector-curvature="0"
   id="path408"
   style="fill:none;stroke:#000000;stroke-width:1.42263806;stroke-linecap:butt;stroke-linejoin:round;stroke-miterlimit:10;stroke-opacity:1;stroke-dasharray:none"
   d="m 336.461,32.043 0,2.738" /><text
   id="text410"
   transform="scale(1,-1)"
   x="30.546875"
   y="-23.070312"><tspan
     id="tspan412"
     sodipodi:role="line"
     y="-23.070312"
     x="30.546875 35.717674 90.69928 95.870071 150.84375 156.01454 210.99615 216.16695 271.14453 276.31534 331.29694 336.46774"
     style="font-size:9.30000019px;font-variant:normal;writing-mode:lr-tb;fill:#000000;fill-opacity:1;fill-rule:nonzero;stroke:none;font-family:Nimbus Sans L;-inkscape-font-specification:NimbusSanL-Regu">152025303540</tspan></text>




<path
   inkscape:connector-curvature="0"
   id="path414"
   style="fill:none;stroke:#000000;stroke-width:1.42263806;stroke-linecap:butt;stroke-linejoin:round;stroke-miterlimit:10;stroke-opacity:1;stroke-dasharray:none"
   d="m 350.633,34.781 300.746,0" /><path
   inkscape:connector-curvature="0"
   id="path416"
   style="fill:none;stroke:#000000;stroke-width:1.42263806;stroke-linecap:butt;stroke-linejoin:round;stroke-miterlimit:10;stroke-opacity:1;stroke-dasharray:none"
   d="m 350.633,32.043 0,2.738" /><path
   inkscape:connector-curvature="0"
   id="path418"
   style="fill:none;stroke:#000000;stroke-width:1.42263806;stroke-linecap:butt;stroke-linejoin:round;stroke-miterlimit:10;stroke-opacity:1;stroke-dasharray:none"
   d="m 410.781,32.043 0,2.738" /><path
   inkscape:connector-curvature="0"
   id="path420"
   style="fill:none;stroke:#000000;stroke-width:1.42263806;stroke-linecap:butt;stroke-linejoin:round;stroke-miterlimit:10;stroke-opacity:1;stroke-dasharray:none"
   d="m 470.93,32.043 0,2.738" /><path
   inkscape:connector-curvature="0"
   id="path422"
   style="fill:none;stroke:#000000;stroke-width:1.42263806;stroke-linecap:butt;stroke-linejoin:round;stroke-miterlimit:10;stroke-opacity:1;stroke-dasharray:none"
   d="m 531.082,32.043 0,2.738" /><path
   inkscape:connector-curvature="0"
   id="path424"
   style="fill:none;stroke:#000000;stroke-width:1.42263806;stroke-linecap:butt;stroke-linejoin:round;stroke-miterlimit:10;stroke-opacity:1;stroke-dasharray:none"
   d="m 591.23,32.043 0,2.738" /><path
   inkscape:connector-curvature="0"
   id="path426"
   style="fill:none;stroke:#000000;stroke-width:1.42263806;stroke-linecap:butt;stroke-linejoin:round;stroke-miterlimit:10;stroke-opacity:1;stroke-dasharray:none"
   d="m 651.379,32.043 0,2.738" /><text
   id="text428"
   transform="scale(1,-1)"
   x="345.46484"
   y="-23.070312"><tspan
     id="tspan430"
     sodipodi:role="line"
     y="-23.070312"
     x="345.46484 350.63565 405.61725 410.78802 465.76172 470.9325 525.91412 531.0849 586.0625 591.23328 646.2149 651.38568"
     style="font-size:9.30000019px;font-variant:normal;writing-mode:lr-tb;fill:#000000;fill-opacity:1;fill-rule:nonzero;stroke:none;font-family:Nimbus Sans L;-inkscape-font-specification:NimbusSanL-Regu">152025303540</tspan></text>




<text
   id="text432"
   transform="scale(1,-1)"
   x="296.83984"
   y="-10.171875"><tspan
     id="tspan434"
     sodipodi:role="line"
     y="-10.171875"
     x="296.83984 303.86633 310.26035 320.48383 327.51035 333.90433 338.37784 344.77185 348.60135 355.62784 360.10135 366.49533 369.69235"
     style="font-size:11.5px;font-variant:normal;font-weight:bold;writing-mode:lr-tb;fill:#000000;fill-opacity:1;fill-rule:nonzero;stroke:none;font-family:Nimbus Sans L;-inkscape-font-specification:NimbusSanL-Bold">Temperature (</tspan></text>




<text
   id="text436"
   transform="scale(1,-1)"
   x="373.52185"
   y="-10.171875"><tspan
     id="tspan438"
     y="-10.171875"
     x="373.52185"
     style="font-size:11.5px;font-variant:normal;font-weight:normal;writing-mode:lr-tb;fill:#000000;fill-opacity:1;fill-rule:nonzero;stroke:none;font-family:Symbol;-inkscape-font-specification:Symbol">°</tspan></text>




<text
   id="text440"
   transform="scale(1,-1)"
   x="378.12183"
   y="-10.171875"><tspan
     id="tspan442"
     sodipodi:role="line"
     y="-10.171875"
     x="378.12183 386.42484"
     style="font-size:11.5px;font-variant:normal;font-weight:bold;writing-mode:lr-tb;fill:#000000;fill-opacity:1;fill-rule:nonzero;stroke:none;font-family:Nimbus Sans L;-inkscape-font-specification:NimbusSanL-Bold">C)</tspan></text>




<text
   id="text444"
   transform="matrix(0,1,1,0,0,0)"
   x="204.79688"
   y="16.0625"><tspan
     id="tspan446"
     sodipodi:role="line"
     y="16.0625"
     x="204.79688 213.74387 220.13786 223.33487 227.16437 234.19087 241.21738 248.24387 254.63786"
     style="font-size:11.5px;font-variant:normal;font-weight:bold;writing-mode:lr-tb;fill:#000000;fill-opacity:1;fill-rule:nonzero;stroke:none;font-family:Nimbus Sans L;-inkscape-font-specification:NimbusSanL-Bold">O<tspan
   id="tspan3441"
   style="font-size:10.39999962px;baseline-shift:sub">3</tspan> (ppbv)</tspan></text>




<g
   transform="matrix(0.8,0,0,-0.8,-83.817375,590.15484)"
   id="layer1"
   inkscape:label="Layer 1"><g
     transform="matrix(1.25,0,0,-1.25,85.149201,781.9057)"
     id="g3276"><text
   id="text38"
   transform="scale(1,-1)"
   x="56"
   y="-400"><tspan
     id="tspan40"
     sodipodi:role="line"
     y="-400"
     x="56 66.757812 77.515594 81.657806 89.107788"
     style="font-size:14.89999962px;font-variant:normal;writing-mode:lr-tb;fill:#ef6638;fill-opacity:1;fill-rule:nonzero;stroke:none;font-family:Nimbus Sans L;-inkscape-font-specification:NimbusSanL-Regu">CRIv2</tspan></text>




<text
   id="text42"
   transform="scale(1,-1)"
   x="56"
   y="-384"><tspan
     id="tspan44"
     sodipodi:role="line"
     y="-384"
     x="56 68.411713 80.003906 89.107788 99.046112 109.80389 118.90781 123.86951"
     style="font-size:14.89999962px;font-variant:normal;writing-mode:lr-tb;fill:#2b9eb3;fill-opacity:1;fill-rule:nonzero;stroke:none;font-family:Nimbus Sans L;-inkscape-font-specification:NimbusSanL-Regu">MOZART-4</tspan></text>




<text
   id="text46"
   transform="scale(1,-1)"
   x="56"
   y="-416"><tspan
     id="tspan48"
     sodipodi:role="line"
     y="-416"
     x="56 68.411713 79.169495 91.581207 99.031189 107.31561 111.45779"
     style="font-size:14.89999962px;font-variant:normal;writing-mode:lr-tb;fill:#6c254f;fill-opacity:1;fill-rule:nonzero;stroke:none;font-family:Nimbus Sans L;-inkscape-font-specification:NimbusSanL-Regu">MCMv3.2</tspan></text>




<text
   id="text50"
   transform="scale(1,-1)"
   x="56"
   y="-432"><tspan
     id="tspan52"
     sodipodi:role="line"
     y="-432"
     x="56 66.757812 76.696106 87.453888 99.865601"
     style="font-size:14.89999962px;font-variant:normal;writing-mode:lr-tb;fill:#f9c500;fill-opacity:1;fill-rule:nonzero;stroke:none;font-family:Nimbus Sans L;-inkscape-font-specification:NimbusSanL-Regu">RADM2</tspan></text>




<text
   id="text54"
   transform="scale(1,-1)"
   x="56"
   y="-448"><tspan
     id="tspan56"
     sodipodi:role="line"
     y="-448"
     x="56 66.757812 76.696106 84.980499"
     style="font-size:14.89999962px;font-variant:normal;writing-mode:lr-tb;fill:#0e5c28;fill-opacity:1;fill-rule:nonzero;stroke:none;font-family:Nimbus Sans L;-inkscape-font-specification:NimbusSanL-Regu">CB05</tspan></text>




</g></g><g
   transform="matrix(0.8,0,0,-0.8,56.231705,665.70123)"
   id="layer1-8"
   inkscape:label="Layer 1"><g
     transform="matrix(1.25,0,0,-1.25,-77.337947,872.16443)"
     id="g3288"><text
   xml:space="preserve"
   style="font-size:12.80000019px;font-style:normal;font-variant:normal;font-weight:bold;font-stretch:normal;line-height:125%;letter-spacing:0px;word-spacing:0px;fill:#000000;fill-opacity:1;stroke:none;font-family:Nimbus Sans L;-inkscape-font-specification:Sans Bold"
   x="52.391895"
   y="-471.99997"
   id="text3281"
   sodipodi:linespacing="125%"
   transform="scale(1,-1)"><tspan
     sodipodi:role="line"
     id="tspan3283"
     x="52.391895"
     y="-471.99997">Temperature Independent isoprene Emissions</tspan></text>




<text
   xml:space="preserve"
   style="font-size:12.80000019px;font-style:normal;font-variant:normal;font-weight:bold;font-stretch:normal;line-height:125%;letter-spacing:0px;word-spacing:0px;fill:#000000;fill-opacity:1;stroke:none;font-family:Nimbus Sans L;-inkscape-font-specification:Sans Bold"
   x="357.5029"
   y="-471.99997"
   id="text3281-3"
   sodipodi:linespacing="125%"
   transform="scale(1,-1)"><tspan
     sodipodi:role="line"
     id="tspan3283-4"
     x="357.5029"
     y="-471.99997">Temperature Dependent isoprene Emissions</tspan></text>




</g></g><path
   style="fill:none;stroke:#2b9eb3;stroke-width:1.60657942;stroke-linecap:butt;stroke-linejoin:miter;stroke-opacity:1"
   d="m 98.69822,44.56424 237.94492,0"
   id="path3674"
   inkscape:connector-curvature="0" /><path
   style="fill:none;stroke:#2b9eb3;stroke-width:1.60000002;stroke-linecap:butt;stroke-linejoin:miter;stroke-opacity:1"
   d="m 336.29822,86.96424 0,-41.6"
   id="path3694"
   inkscape:connector-curvature="0" /><path
   style="fill:none;stroke:#2b9eb3;stroke-width:1.567536;stroke-linecap:butt;stroke-linejoin:miter;stroke-opacity:1"
   d="m 414.91554,44.60795 236,0"
   id="path3674-3"
   inkscape:connector-curvature="0" /><path
   style="fill:none;stroke:#2b9eb3;stroke-width:1.567536;stroke-linecap:butt;stroke-linejoin:miter;stroke-opacity:1"
   d="m 650.91554,84.536948 0,-39.928998"
   id="path3694-0"
   inkscape:connector-curvature="0" /><path
   style="fill:none;stroke:#2b9eb3;stroke-width:1.567536;stroke-linecap:butt;stroke-linejoin:miter;stroke-miterlimit:4;stroke-opacity:1;stroke-dasharray:1.567536, 3.13507201;stroke-dashoffset:0"
   d="m 650.91554,119.85876 0,-34.553945"
   id="path3736"
   inkscape:connector-curvature="0" /><text
   xml:space="preserve"
   style="font-size:15.67535973px;font-style:normal;font-variant:normal;font-weight:bold;font-stretch:normal;line-height:125%;letter-spacing:0px;word-spacing:0px;fill:#2b9eb3;fill-opacity:1;stroke:none;font-family:Nimbus Sans L;-inkscape-font-specification:Sans Bold"
   x="640.44934"
   y="-100.27955"
   id="text4506"
   sodipodi:linespacing="125%"
   transform="scale(1.0207102,-0.97971)"><tspan
     sodipodi:role="line"
     id="tspan4508"
     x="640.44934"
     y="-100.27955"
     style="font-size:12.54028797px;fill:#2b9eb3;fill-opacity:1">Emissions</tspan></text>



<text
   xml:space="preserve"
   style="font-size:15.67535877px;font-style:normal;font-variant:normal;font-weight:bold;font-stretch:normal;line-height:125%;letter-spacing:0px;word-spacing:0px;fill:#2b9eb3;fill-opacity:1;stroke:none;font-family:Nimbus Sans L;-inkscape-font-specification:Sans Bold"
   x="640.64996"
   y="-115.71342"
   id="text4506-1"
   sodipodi:linespacing="125%"
   transform="scale(1.0207102,-0.97971001)"><tspan
     sodipodi:role="line"
     id="tspan4508-2"
     x="640.64996"
     y="-115.71342"
     style="font-size:12.54028797px;fill:#2b9eb3;fill-opacity:1">Isoprene</tspan></text>



<text
   xml:space="preserve"
   style="font-size:16px;font-style:normal;font-variant:normal;font-weight:bold;font-stretch:normal;line-height:125%;letter-spacing:0px;word-spacing:0px;fill:#2b9eb3;fill-opacity:1;stroke:none;font-family:Nimbus Sans L;-inkscape-font-specification:Sans Bold"
   x="337.75931"
   y="-69.223442"
   id="text3732"
   sodipodi:linespacing="125%"
   transform="scale(1,-1)"><tspan
     sodipodi:role="line"
     id="tspan3734"
     x="337.75931"
     y="-69.223442"
     style="font-size:12.80000019px;fill:#2b9eb3;fill-opacity:1">Chemistry</tspan></text>

</g></svg>